<mxfile host="app.diagrams.net" agent="Mozilla/5.0 (Windows NT 10.0; Win64; x64) AppleWebKit/537.36 (KHTML, like Gecko) Chrome/131.0.0.0 Safari/537.36" version="24.8.8" pages="2">
  <diagram name="Page-1" id="v0021uvxIV_KChGc3sIn">
    <mxGraphModel dx="5386" dy="3923" grid="1" gridSize="10" guides="1" tooltips="1" connect="1" arrows="1" fold="1" page="1" pageScale="1" pageWidth="850" pageHeight="1100" math="0" shadow="0">
      <root>
        <mxCell id="0" />
        <mxCell id="1" parent="0" />
        <mxCell id="gUQQYlxxlWg2NasRCSm_-6" style="edgeStyle=orthogonalEdgeStyle;rounded=0;orthogonalLoop=1;jettySize=auto;html=1;exitX=0.5;exitY=1;exitDx=0;exitDy=0;exitPerimeter=0;entryX=0.5;entryY=0;entryDx=0;entryDy=0;" parent="1" source="rXHbmidsyB8I2zzbeeDN-1" edge="1">
          <mxGeometry relative="1" as="geometry">
            <mxPoint x="398.2600000000002" y="-1720" as="targetPoint" />
          </mxGeometry>
        </mxCell>
        <mxCell id="rXHbmidsyB8I2zzbeeDN-1" value="&lt;font style=&quot;font-size: 18px;&quot;&gt;START&lt;/font&gt;" style="strokeWidth=2;html=1;shape=mxgraph.flowchart.terminator;whiteSpace=wrap;fontFamily=Times New Roman;" parent="1" vertex="1">
          <mxGeometry x="313.51" y="-1920" width="169.5" height="90" as="geometry" />
        </mxCell>
        <mxCell id="rXHbmidsyB8I2zzbeeDN-6" value="&lt;div style=&quot;text-align: left;&quot;&gt;&lt;span style=&quot;background-color: initial;&quot;&gt;&lt;font style=&quot;font-size: 18px;&quot;&gt;1.LOGIN&lt;/font&gt;&lt;/span&gt;&lt;/div&gt;&lt;div style=&quot;text-align: left;&quot;&gt;&lt;font size=&quot;3&quot;&gt;2.BUAT AKUN&lt;/font&gt;&lt;/div&gt;&lt;div style=&quot;text-align: left;&quot;&gt;&lt;font size=&quot;3&quot;&gt;3.KELUAR&lt;/font&gt;&lt;/div&gt;" style="whiteSpace=wrap;html=1;" parent="1" vertex="1">
          <mxGeometry x="296.13" y="-1420" width="202.25" height="100" as="geometry" />
        </mxCell>
        <mxCell id="rXHbmidsyB8I2zzbeeDN-8" value="&lt;font style=&quot;font-size: 18px;&quot;&gt;USER LOGIN&lt;/font&gt;" style="whiteSpace=wrap;html=1;" parent="1" vertex="1">
          <mxGeometry x="294.25" y="-1030" width="208" height="120" as="geometry" />
        </mxCell>
        <mxCell id="rXHbmidsyB8I2zzbeeDN-24" value="" style="endArrow=classic;html=1;rounded=0;exitX=0.5;exitY=1;exitDx=0;exitDy=0;" parent="1" source="NfpK6JRWBrip7_dLDp5m-44" target="WXKAW2A6yFPXHFqB-_A9-13" edge="1">
          <mxGeometry width="50" height="50" relative="1" as="geometry">
            <mxPoint x="400" y="-650" as="sourcePoint" />
            <mxPoint x="432.5" y="-550" as="targetPoint" />
            <Array as="points">
              <mxPoint x="400" y="-650" />
              <mxPoint x="400" y="-640" />
              <mxPoint x="400" y="-620" />
              <mxPoint x="400" y="-600" />
            </Array>
          </mxGeometry>
        </mxCell>
        <mxCell id="rXHbmidsyB8I2zzbeeDN-29" value="" style="endArrow=classic;html=1;rounded=0;exitX=1;exitY=0.5;exitDx=0;exitDy=0;exitPerimeter=0;entryX=0;entryY=0.5;entryDx=0;entryDy=0;" parent="1" source="rXHbmidsyB8I2zzbeeDN-36" target="WXKAW2A6yFPXHFqB-_A9-36" edge="1">
          <mxGeometry width="50" height="50" relative="1" as="geometry">
            <mxPoint x="387" y="-487" as="sourcePoint" />
            <mxPoint x="610" y="-260" as="targetPoint" />
          </mxGeometry>
        </mxCell>
        <mxCell id="rXHbmidsyB8I2zzbeeDN-32" value="" style="endArrow=classic;html=1;rounded=0;exitX=0.5;exitY=1;exitDx=0;exitDy=0;entryX=0.477;entryY=0;entryDx=0;entryDy=0;entryPerimeter=0;" parent="1" source="WXKAW2A6yFPXHFqB-_A9-36" target="WXKAW2A6yFPXHFqB-_A9-40" edge="1">
          <mxGeometry width="50" height="50" relative="1" as="geometry">
            <mxPoint x="685" y="-210" as="sourcePoint" />
            <mxPoint x="745" y="-170" as="targetPoint" />
          </mxGeometry>
        </mxCell>
        <mxCell id="rXHbmidsyB8I2zzbeeDN-34" value="" style="endArrow=classic;html=1;rounded=0;exitX=0.5;exitY=0.978;exitDx=0;exitDy=0;exitPerimeter=0;" parent="1" source="rXHbmidsyB8I2zzbeeDN-37" edge="1">
          <mxGeometry width="50" height="50" relative="1" as="geometry">
            <mxPoint x="430" y="-150" as="sourcePoint" />
            <mxPoint x="400" y="-100" as="targetPoint" />
          </mxGeometry>
        </mxCell>
        <mxCell id="rXHbmidsyB8I2zzbeeDN-53" value="" style="endArrow=classic;html=1;rounded=0;entryX=0;entryY=0.5;entryDx=0;entryDy=0;" parent="1" edge="1">
          <mxGeometry width="50" height="50" relative="1" as="geometry">
            <mxPoint x="920" y="400" as="sourcePoint" />
            <mxPoint x="970" y="401" as="targetPoint" />
          </mxGeometry>
        </mxCell>
        <mxCell id="rXHbmidsyB8I2zzbeeDN-68" value="" style="endArrow=classic;html=1;rounded=0;entryX=0;entryY=0.5;entryDx=0;entryDy=0;entryPerimeter=0;" parent="1" source="NfpK6JRWBrip7_dLDp5m-23" target="WXKAW2A6yFPXHFqB-_A9-73" edge="1">
          <mxGeometry width="50" height="50" relative="1" as="geometry">
            <mxPoint x="375" y="315" as="sourcePoint" />
            <mxPoint x="420" y="630" as="targetPoint" />
          </mxGeometry>
        </mxCell>
        <mxCell id="rXHbmidsyB8I2zzbeeDN-71" value="" style="endArrow=classic;html=1;rounded=0;entryX=0;entryY=0.5;entryDx=0;entryDy=0;entryPerimeter=0;" parent="1" source="NfpK6JRWBrip7_dLDp5m-29" target="WXKAW2A6yFPXHFqB-_A9-72" edge="1">
          <mxGeometry width="50" height="50" relative="1" as="geometry">
            <mxPoint x="430" y="740" as="sourcePoint" />
            <mxPoint x="428.61538461538476" y="785" as="targetPoint" />
            <Array as="points" />
          </mxGeometry>
        </mxCell>
        <mxCell id="rXHbmidsyB8I2zzbeeDN-72" value="" style="endArrow=classic;html=1;rounded=0;entryX=1.01;entryY=0.891;entryDx=0;entryDy=0;entryPerimeter=0;exitX=0.868;exitY=0.614;exitDx=0;exitDy=0;exitPerimeter=0;" parent="1" source="WXKAW2A6yFPXHFqB-_A9-52" target="WXKAW2A6yFPXHFqB-_A9-36" edge="1">
          <mxGeometry width="50" height="50" relative="1" as="geometry">
            <mxPoint x="1204.7000000000003" y="41.25" as="sourcePoint" />
            <mxPoint x="970" y="-242.5" as="targetPoint" />
            <Array as="points">
              <mxPoint x="1280" y="133" />
              <mxPoint x="1280" y="-102.5" />
              <mxPoint x="1280" y="-220" />
            </Array>
          </mxGeometry>
        </mxCell>
        <mxCell id="rXHbmidsyB8I2zzbeeDN-73" value="" style="endArrow=classic;html=1;rounded=0;entryX=1.01;entryY=0.647;entryDx=0;entryDy=0;entryPerimeter=0;" parent="1" target="WXKAW2A6yFPXHFqB-_A9-36" edge="1">
          <mxGeometry width="50" height="50" relative="1" as="geometry">
            <mxPoint x="1123" y="400" as="sourcePoint" />
            <mxPoint x="970.0000000000002" y="-282.1999999999998" as="targetPoint" />
            <Array as="points">
              <mxPoint x="1220" y="401" />
              <mxPoint x="1399" y="400" />
              <mxPoint x="1399" y="90" />
              <mxPoint x="1399" y="40" />
              <mxPoint x="1400" y="-250" />
              <mxPoint x="1110" y="-250" />
            </Array>
          </mxGeometry>
        </mxCell>
        <mxCell id="rXHbmidsyB8I2zzbeeDN-75" value="" style="endArrow=classic;html=1;rounded=0;entryX=0.885;entryY=0.539;entryDx=0;entryDy=0;entryPerimeter=0;" parent="1" target="WXKAW2A6yFPXHFqB-_A9-39" edge="1">
          <mxGeometry width="50" height="50" relative="1" as="geometry">
            <mxPoint x="215" y="400" as="sourcePoint" />
            <mxPoint x="244.69999999999982" y="263.75" as="targetPoint" />
          </mxGeometry>
        </mxCell>
        <mxCell id="rXHbmidsyB8I2zzbeeDN-77" value="" style="endArrow=classic;html=1;rounded=0;" parent="1" edge="1">
          <mxGeometry width="50" height="50" relative="1" as="geometry">
            <mxPoint x="240" y="640" as="sourcePoint" />
            <mxPoint x="140" y="641" as="targetPoint" />
          </mxGeometry>
        </mxCell>
        <mxCell id="rXHbmidsyB8I2zzbeeDN-79" value="" style="endArrow=classic;html=1;rounded=0;exitX=0;exitY=0.5;exitDx=0;exitDy=0;exitPerimeter=0;entryX=1;entryY=0.5;entryDx=0;entryDy=0;" parent="1" source="NfpK6JRWBrip7_dLDp5m-31" target="WXKAW2A6yFPXHFqB-_A9-120" edge="1">
          <mxGeometry width="50" height="50" relative="1" as="geometry">
            <mxPoint x="390" y="503" as="sourcePoint" />
            <mxPoint x="250" y="503" as="targetPoint" />
          </mxGeometry>
        </mxCell>
        <mxCell id="rXHbmidsyB8I2zzbeeDN-90" value="" style="endArrow=classic;html=1;rounded=0;exitX=0.543;exitY=1.082;exitDx=0;exitDy=0;exitPerimeter=0;entryX=0;entryY=0.5;entryDx=0;entryDy=0;entryPerimeter=0;" parent="1" source="WXKAW2A6yFPXHFqB-_A9-111" target="WXKAW2A6yFPXHFqB-_A9-67" edge="1">
          <mxGeometry width="50" height="50" relative="1" as="geometry">
            <mxPoint x="440" y="1240" as="sourcePoint" />
            <mxPoint x="442.40767123287696" y="1300" as="targetPoint" />
          </mxGeometry>
        </mxCell>
        <mxCell id="rXHbmidsyB8I2zzbeeDN-92" style="edgeStyle=orthogonalEdgeStyle;rounded=0;orthogonalLoop=1;jettySize=auto;html=1;exitX=0;exitY=0.5;exitDx=0;exitDy=0;exitPerimeter=0;entryX=1;entryY=0.5;entryDx=0;entryDy=0;" parent="1" source="NfpK6JRWBrip7_dLDp5m-39" edge="1">
          <mxGeometry relative="1" as="geometry">
            <mxPoint x="390" y="923" as="sourcePoint" />
            <mxPoint x="130" y="1366.5" as="targetPoint" />
          </mxGeometry>
        </mxCell>
        <mxCell id="WXKAW2A6yFPXHFqB-_A9-3" style="edgeStyle=orthogonalEdgeStyle;rounded=0;orthogonalLoop=1;jettySize=auto;html=1;exitX=0.5;exitY=1;exitDx=0;exitDy=0;exitPerimeter=0;entryX=0.5;entryY=0;entryDx=0;entryDy=0;" parent="1" source="rXHbmidsyB8I2zzbeeDN-107" target="rXHbmidsyB8I2zzbeeDN-8" edge="1">
          <mxGeometry relative="1" as="geometry" />
        </mxCell>
        <mxCell id="gUQQYlxxlWg2NasRCSm_-1" style="edgeStyle=orthogonalEdgeStyle;rounded=0;orthogonalLoop=1;jettySize=auto;html=1;exitX=1;exitY=0.5;exitDx=0;exitDy=0;exitPerimeter=0;" parent="1" source="rXHbmidsyB8I2zzbeeDN-107" edge="1">
          <mxGeometry relative="1" as="geometry">
            <mxPoint x="1140" y="-1159.851851851852" as="targetPoint" />
          </mxGeometry>
        </mxCell>
        <mxCell id="rXHbmidsyB8I2zzbeeDN-107" value="&lt;font style=&quot;font-size: 18px;&quot;&gt;pilih==1&lt;/font&gt;" style="strokeWidth=2;html=1;shape=mxgraph.flowchart.decision;whiteSpace=wrap;" parent="1" vertex="1">
          <mxGeometry x="320.75" y="-1230" width="153" height="140" as="geometry" />
        </mxCell>
        <mxCell id="gUQQYlxxlWg2NasRCSm_-2" style="edgeStyle=orthogonalEdgeStyle;rounded=0;orthogonalLoop=1;jettySize=auto;html=1;exitX=1;exitY=0.5;exitDx=0;exitDy=0;exitPerimeter=0;" parent="1" source="rXHbmidsyB8I2zzbeeDN-110" target="ZJw0-FnNh-KPuZbI-hhZ-27" edge="1">
          <mxGeometry relative="1" as="geometry" />
        </mxCell>
        <mxCell id="rXHbmidsyB8I2zzbeeDN-110" value="&lt;font style=&quot;font-size: 18px;&quot;&gt;pilih==2&lt;/font&gt;" style="strokeWidth=2;html=1;shape=mxgraph.flowchart.decision;whiteSpace=wrap;" parent="1" vertex="1">
          <mxGeometry x="1920" y="-1235" width="160" height="150" as="geometry" />
        </mxCell>
        <mxCell id="gV-HkSjfAiAgL5ac0c7B-22" value="&lt;font style=&quot;font-size: 18px;&quot;&gt;TIDAK&lt;/font&gt;" style="text;html=1;align=center;verticalAlign=middle;resizable=0;points=[];autosize=1;strokeColor=none;fillColor=none;" parent="1" vertex="1">
          <mxGeometry x="1150" y="-1180" width="80" height="40" as="geometry" />
        </mxCell>
        <mxCell id="NfpK6JRWBrip7_dLDp5m-15" value="" style="endArrow=classic;html=1;rounded=0;entryX=1;entryY=0.5;entryDx=0;entryDy=0;exitX=0;exitY=0.5;exitDx=0;exitDy=0;exitPerimeter=0;" parent="1" target="rXHbmidsyB8I2zzbeeDN-21" edge="1">
          <mxGeometry width="50" height="50" relative="1" as="geometry">
            <mxPoint x="376.5" y="-497.5" as="sourcePoint" />
            <mxPoint x="170" y="-497" as="targetPoint" />
          </mxGeometry>
        </mxCell>
        <mxCell id="rXHbmidsyB8I2zzbeeDN-21" value="&lt;font style=&quot;font-size: 18px;&quot;&gt;TIDAK&lt;/font&gt;" style="text;html=1;align=center;verticalAlign=middle;resizable=0;points=[];autosize=1;strokeColor=none;fillColor=none;" parent="1" vertex="1">
          <mxGeometry x="220" y="-520" width="80" height="40" as="geometry" />
        </mxCell>
        <mxCell id="rXHbmidsyB8I2zzbeeDN-25" value="&lt;font style=&quot;font-size: 18px;&quot;&gt;YA&lt;/font&gt;" style="text;html=1;align=center;verticalAlign=middle;resizable=0;points=[];autosize=1;strokeColor=none;fillColor=none;" parent="1" vertex="1">
          <mxGeometry x="375" y="-400" width="50" height="40" as="geometry" />
        </mxCell>
        <mxCell id="NfpK6JRWBrip7_dLDp5m-17" value="" style="endArrow=classic;html=1;rounded=0;exitX=1;exitY=0.5;exitDx=0;exitDy=0;exitPerimeter=0;entryX=0;entryY=0.5;entryDx=0;entryDy=0;" parent="1" source="WXKAW2A6yFPXHFqB-_A9-30" target="rXHbmidsyB8I2zzbeeDN-36" edge="1">
          <mxGeometry width="50" height="50" relative="1" as="geometry">
            <mxPoint x="456" y="-280" as="sourcePoint" />
            <mxPoint x="610" y="-317" as="targetPoint" />
          </mxGeometry>
        </mxCell>
        <mxCell id="rXHbmidsyB8I2zzbeeDN-36" value="&lt;font style=&quot;font-size: 18px;&quot;&gt;TIDAK&lt;/font&gt;" style="text;html=1;align=center;verticalAlign=middle;resizable=0;points=[];autosize=1;strokeColor=none;fillColor=none;" parent="1" vertex="1">
          <mxGeometry x="510" y="-282.5" width="80" height="40" as="geometry" />
        </mxCell>
        <mxCell id="NfpK6JRWBrip7_dLDp5m-18" value="" style="endArrow=classic;html=1;rounded=0;exitX=0.5;exitY=1;exitDx=0;exitDy=0;exitPerimeter=0;" parent="1" edge="1">
          <mxGeometry width="50" height="50" relative="1" as="geometry">
            <mxPoint x="400" y="-227.5" as="sourcePoint" />
            <mxPoint x="400" y="-170" as="targetPoint" />
            <Array as="points">
              <mxPoint x="400" y="-190" />
            </Array>
          </mxGeometry>
        </mxCell>
        <mxCell id="rXHbmidsyB8I2zzbeeDN-37" value="&lt;font style=&quot;font-size: 18px;&quot;&gt;YA&lt;/font&gt;" style="text;html=1;align=center;verticalAlign=middle;resizable=0;points=[];autosize=1;strokeColor=none;fillColor=none;" parent="1" vertex="1">
          <mxGeometry x="375" y="-170" width="50" height="40" as="geometry" />
        </mxCell>
        <mxCell id="NfpK6JRWBrip7_dLDp5m-19" value="" style="endArrow=classic;html=1;rounded=0;exitX=1;exitY=0.5;exitDx=0;exitDy=0;exitPerimeter=0;" parent="1" edge="1">
          <mxGeometry width="50" height="50" relative="1" as="geometry">
            <mxPoint x="789.9999999999995" y="127.99000000000001" as="sourcePoint" />
            <mxPoint x="860" y="128" as="targetPoint" />
          </mxGeometry>
        </mxCell>
        <mxCell id="rXHbmidsyB8I2zzbeeDN-55" value="&lt;font style=&quot;font-size: 18px;&quot;&gt;YA&lt;/font&gt;" style="text;html=1;align=center;verticalAlign=middle;resizable=0;points=[];autosize=1;strokeColor=none;fillColor=none;" parent="1" vertex="1">
          <mxGeometry x="860" y="108.5" width="50" height="40" as="geometry" />
        </mxCell>
        <mxCell id="rXHbmidsyB8I2zzbeeDN-56" value="&lt;font style=&quot;font-size: 18px;&quot;&gt;TIDAK&lt;/font&gt;" style="text;html=1;align=center;verticalAlign=middle;resizable=0;points=[];autosize=1;strokeColor=none;fillColor=none;" parent="1" vertex="1">
          <mxGeometry x="710" y="260" width="80" height="40" as="geometry" />
        </mxCell>
        <mxCell id="gV-HkSjfAiAgL5ac0c7B-23" value="&lt;font style=&quot;font-size: 18px;&quot;&gt;TIDAK&lt;/font&gt;" style="text;html=1;align=center;verticalAlign=middle;resizable=0;points=[];autosize=1;strokeColor=none;fillColor=none;" parent="1" vertex="1">
          <mxGeometry x="711.74" y="500" width="80" height="40" as="geometry" />
        </mxCell>
        <mxCell id="gV-HkSjfAiAgL5ac0c7B-24" value="&lt;font style=&quot;font-size: 18px;&quot;&gt;YA&lt;/font&gt;" style="text;html=1;align=center;verticalAlign=middle;resizable=0;points=[];autosize=1;strokeColor=none;fillColor=none;" parent="1" vertex="1">
          <mxGeometry x="860" y="381" width="50" height="40" as="geometry" />
        </mxCell>
        <mxCell id="NfpK6JRWBrip7_dLDp5m-23" value="&lt;font style=&quot;font-size: 18px;&quot;&gt;TIDAK&lt;/font&gt;" style="text;html=1;align=center;verticalAlign=middle;resizable=0;points=[];autosize=1;strokeColor=none;fillColor=none;" parent="1" vertex="1">
          <mxGeometry x="360" y="500" width="80" height="40" as="geometry" />
        </mxCell>
        <mxCell id="NfpK6JRWBrip7_dLDp5m-25" value="&lt;span style=&quot;font-size: 18px;&quot;&gt;YA&lt;/span&gt;" style="text;html=1;align=center;verticalAlign=middle;resizable=0;points=[];autosize=1;strokeColor=none;fillColor=none;" parent="1" vertex="1">
          <mxGeometry x="215" y="381" width="50" height="40" as="geometry" />
        </mxCell>
        <mxCell id="NfpK6JRWBrip7_dLDp5m-27" value="&lt;font style=&quot;font-size: 18px;&quot;&gt;YA&lt;/font&gt;" style="text;html=1;align=center;verticalAlign=middle;resizable=0;points=[];autosize=1;strokeColor=none;fillColor=none;" parent="1" vertex="1">
          <mxGeometry x="242.25" y="621" width="50" height="40" as="geometry" />
        </mxCell>
        <mxCell id="NfpK6JRWBrip7_dLDp5m-31" value="&lt;font style=&quot;font-size: 18px;&quot;&gt;YA&lt;/font&gt;" style="text;html=1;align=center;verticalAlign=middle;resizable=0;points=[];autosize=1;strokeColor=none;fillColor=none;" parent="1" vertex="1">
          <mxGeometry x="210" y="860" width="50" height="40" as="geometry" />
        </mxCell>
        <mxCell id="NfpK6JRWBrip7_dLDp5m-35" value="&lt;font style=&quot;font-size: 18px;&quot;&gt;YA&lt;/font&gt;" style="text;html=1;align=center;verticalAlign=middle;resizable=0;points=[];autosize=1;strokeColor=none;fillColor=none;" parent="1" vertex="1">
          <mxGeometry x="190" y="1100" width="50" height="40" as="geometry" />
        </mxCell>
        <mxCell id="NfpK6JRWBrip7_dLDp5m-38" value="" style="endArrow=classic;html=1;rounded=0;entryX=0;entryY=0.5;entryDx=0;entryDy=0;entryPerimeter=0;" parent="1" source="NfpK6JRWBrip7_dLDp5m-37" target="WXKAW2A6yFPXHFqB-_A9-69" edge="1">
          <mxGeometry width="50" height="50" relative="1" as="geometry">
            <mxPoint x="443" y="1060" as="sourcePoint" />
            <mxPoint x="435" y="1070" as="targetPoint" />
          </mxGeometry>
        </mxCell>
        <mxCell id="NfpK6JRWBrip7_dLDp5m-37" value="&lt;font style=&quot;font-size: 18px;&quot;&gt;TIDAK&lt;/font&gt;" style="text;html=1;align=center;verticalAlign=middle;resizable=0;points=[];autosize=1;strokeColor=none;fillColor=none;" parent="1" vertex="1">
          <mxGeometry x="358.26" y="985" width="80" height="40" as="geometry" />
        </mxCell>
        <mxCell id="NfpK6JRWBrip7_dLDp5m-39" value="&lt;font style=&quot;font-size: 18px;&quot;&gt;YA&lt;/font&gt;" style="text;html=1;align=center;verticalAlign=middle;resizable=0;points=[];autosize=1;strokeColor=none;fillColor=none;" parent="1" vertex="1">
          <mxGeometry x="190" y="1346.5" width="50" height="40" as="geometry" />
        </mxCell>
        <mxCell id="NfpK6JRWBrip7_dLDp5m-45" value="" style="endArrow=classic;html=1;rounded=0;entryX=0.5;entryY=0;entryDx=0;entryDy=0;entryPerimeter=0;exitX=0.5;exitY=1;exitDx=0;exitDy=0;" parent="1" source="rXHbmidsyB8I2zzbeeDN-8" target="NfpK6JRWBrip7_dLDp5m-44" edge="1">
          <mxGeometry width="50" height="50" relative="1" as="geometry">
            <mxPoint x="433" y="-910" as="sourcePoint" />
            <mxPoint x="433" y="-550" as="targetPoint" />
          </mxGeometry>
        </mxCell>
        <mxCell id="NfpK6JRWBrip7_dLDp5m-44" value="&lt;font style=&quot;font-size: 18px;&quot;&gt;input&amp;nbsp;&lt;/font&gt;&lt;div&gt;&lt;font style=&quot;font-size: 18px;&quot;&gt;&lt;font style=&quot;&quot;&gt;username&amp;nbsp;&lt;/font&gt;&lt;span style=&quot;background-color: initial;&quot;&gt;&amp;amp; password&lt;/span&gt;&lt;/font&gt;&lt;/div&gt;" style="whiteSpace=wrap;html=1;" parent="1" vertex="1">
          <mxGeometry x="294.25" y="-760" width="210" height="100" as="geometry" />
        </mxCell>
        <mxCell id="NfpK6JRWBrip7_dLDp5m-48" value="&lt;font style=&quot;font-size: 18px;&quot;&gt;YA&lt;/font&gt;" style="text;html=1;align=center;verticalAlign=middle;resizable=0;points=[];autosize=1;strokeColor=none;fillColor=none;" parent="1" vertex="1">
          <mxGeometry x="-105" y="-635" width="50" height="40" as="geometry" />
        </mxCell>
        <mxCell id="NfpK6JRWBrip7_dLDp5m-52" value="&lt;font style=&quot;font-size: 18px;&quot;&gt;TIDAK&lt;/font&gt;" style="text;html=1;align=center;verticalAlign=middle;resizable=0;points=[];autosize=1;strokeColor=none;fillColor=none;" parent="1" vertex="1">
          <mxGeometry x="200" y="-860" width="80" height="40" as="geometry" />
        </mxCell>
        <mxCell id="ZJw0-FnNh-KPuZbI-hhZ-21" style="edgeStyle=orthogonalEdgeStyle;rounded=0;orthogonalLoop=1;jettySize=auto;html=1;entryX=0;entryY=0.5;entryDx=0;entryDy=0;entryPerimeter=0;" parent="1" source="WXKAW2A6yFPXHFqB-_A9-25" edge="1">
          <mxGeometry relative="1" as="geometry">
            <Array as="points">
              <mxPoint x="324" y="-310" />
              <mxPoint x="324" y="-500" />
            </Array>
            <mxPoint x="-136.5" y="-365" as="sourcePoint" />
            <mxPoint x="330" y="-500" as="targetPoint" />
          </mxGeometry>
        </mxCell>
        <mxCell id="5L33_iz6L0a8wc0iQSGg-2" style="edgeStyle=orthogonalEdgeStyle;rounded=0;orthogonalLoop=1;jettySize=auto;html=1;exitX=0.5;exitY=0;exitDx=0;exitDy=0;entryX=1;entryY=0.75;entryDx=0;entryDy=0;" edge="1" parent="1" source="ZJw0-FnNh-KPuZbI-hhZ-27" target="rXHbmidsyB8I2zzbeeDN-6">
          <mxGeometry relative="1" as="geometry" />
        </mxCell>
        <mxCell id="ZJw0-FnNh-KPuZbI-hhZ-27" value="&lt;font style=&quot;font-size: 18px;&quot;&gt;input&lt;br style=&quot;border-color: var(--border-color);&quot;&gt;&lt;/font&gt;&lt;div style=&quot;text-align: left;&quot;&gt;&lt;font size=&quot;3&quot;&gt;USERNAME&amp;nbsp;&lt;/font&gt;&lt;span style=&quot;background-color: initial; font-size: medium;&quot;&gt;&amp;amp;&lt;/span&gt;&lt;/div&gt;&lt;div style=&quot;text-align: left;&quot;&gt;&lt;span style=&quot;background-color: initial; font-size: medium;&quot;&gt;PASSWORD&amp;nbsp;&lt;/span&gt;&lt;/div&gt;&lt;div style=&quot;text-align: left;&quot;&gt;&lt;span style=&quot;background-color: initial; font-size: medium;&quot;&gt;serta nama&lt;/span&gt;&lt;/div&gt;" style="shape=parallelogram;html=1;strokeWidth=2;perimeter=parallelogramPerimeter;whiteSpace=wrap;rounded=1;arcSize=12;size=0.23;align=center;" parent="1" vertex="1">
          <mxGeometry x="2220" y="-1230" width="250" height="140" as="geometry" />
        </mxCell>
        <mxCell id="ZJw0-FnNh-KPuZbI-hhZ-30" value="" style="endArrow=classic;html=1;rounded=0;" parent="1" edge="1">
          <mxGeometry width="50" height="50" relative="1" as="geometry">
            <mxPoint x="2370" y="-1101" as="sourcePoint" />
            <mxPoint x="2470" y="-1101" as="targetPoint" />
          </mxGeometry>
        </mxCell>
        <mxCell id="WXKAW2A6yFPXHFqB-_A9-12" style="edgeStyle=orthogonalEdgeStyle;rounded=0;orthogonalLoop=1;jettySize=auto;html=1;exitX=0.5;exitY=0;exitDx=0;exitDy=0;entryX=0.25;entryY=1;entryDx=0;entryDy=0;" parent="1" source="WXKAW2A6yFPXHFqB-_A9-6" target="rXHbmidsyB8I2zzbeeDN-8" edge="1">
          <mxGeometry relative="1" as="geometry">
            <Array as="points">
              <mxPoint x="40" y="-550" />
              <mxPoint x="40" y="-800" />
              <mxPoint x="346" y="-800" />
            </Array>
          </mxGeometry>
        </mxCell>
        <mxCell id="WXKAW2A6yFPXHFqB-_A9-6" value="&lt;span style=&quot;font-size: 18px;&quot;&gt;USERNAME ATAU&lt;/span&gt;&lt;div&gt;&lt;span style=&quot;font-size: 18px;&quot;&gt;PASSWORD SALAH&lt;/span&gt;&lt;/div&gt;" style="whiteSpace=wrap;html=1;" parent="1" vertex="1">
          <mxGeometry x="-55" y="-550" width="208" height="100" as="geometry" />
        </mxCell>
        <mxCell id="WXKAW2A6yFPXHFqB-_A9-9" value="&lt;font style=&quot;font-size: 18px;&quot;&gt;ingin&lt;/font&gt;&lt;div&gt;&lt;font style=&quot;font-size: 18px;&quot;&gt;&amp;nbsp;mengulang&lt;/font&gt;&lt;/div&gt;" style="strokeWidth=2;html=1;shape=mxgraph.flowchart.decision;whiteSpace=wrap;" parent="1" vertex="1">
          <mxGeometry x="-30" y="-780" width="153" height="140" as="geometry" />
        </mxCell>
        <mxCell id="WXKAW2A6yFPXHFqB-_A9-27" style="edgeStyle=orthogonalEdgeStyle;rounded=0;orthogonalLoop=1;jettySize=auto;html=1;exitX=0.5;exitY=1;exitDx=0;exitDy=0;exitPerimeter=0;" parent="1" source="WXKAW2A6yFPXHFqB-_A9-13" edge="1">
          <mxGeometry relative="1" as="geometry">
            <mxPoint x="400.95238095238096" y="-400" as="targetPoint" />
            <Array as="points">
              <mxPoint x="401" y="-410" />
              <mxPoint x="401" y="-410" />
            </Array>
          </mxGeometry>
        </mxCell>
        <mxCell id="WXKAW2A6yFPXHFqB-_A9-13" value="&lt;span style=&quot;font-size: 18px;&quot;&gt;AKUN&amp;nbsp;&lt;/span&gt;&lt;div&gt;&lt;span style=&quot;font-size: 18px;&quot;&gt;TERSEDIA&lt;/span&gt;&lt;/div&gt;" style="strokeWidth=2;html=1;shape=mxgraph.flowchart.decision;whiteSpace=wrap;" parent="1" vertex="1">
          <mxGeometry x="324.63" y="-567.5" width="153" height="140" as="geometry" />
        </mxCell>
        <mxCell id="WXKAW2A6yFPXHFqB-_A9-16" value="" style="endArrow=classic;html=1;rounded=0;entryX=0;entryY=0.5;entryDx=0;entryDy=0;entryPerimeter=0;" parent="1" target="rXHbmidsyB8I2zzbeeDN-110" edge="1">
          <mxGeometry width="50" height="50" relative="1" as="geometry">
            <mxPoint x="1250" y="-1160" as="sourcePoint" />
            <mxPoint x="1770" y="-1330" as="targetPoint" />
            <Array as="points">
              <mxPoint x="1390" y="-1160" />
            </Array>
          </mxGeometry>
        </mxCell>
        <mxCell id="5L33_iz6L0a8wc0iQSGg-3" style="edgeStyle=orthogonalEdgeStyle;rounded=0;orthogonalLoop=1;jettySize=auto;html=1;exitX=0.5;exitY=1;exitDx=0;exitDy=0;" edge="1" parent="1" source="WXKAW2A6yFPXHFqB-_A9-18">
          <mxGeometry relative="1" as="geometry">
            <mxPoint x="485" y="1990" as="targetPoint" />
            <Array as="points">
              <mxPoint x="2355" y="1990" />
            </Array>
          </mxGeometry>
        </mxCell>
        <mxCell id="WXKAW2A6yFPXHFqB-_A9-18" value="&lt;font style=&quot;font-size: 18px;&quot;&gt;output&lt;br style=&quot;border-color: var(--border-color);&quot;&gt;&lt;/font&gt;&lt;div style=&quot;text-align: left;&quot;&gt;&lt;font size=&quot;3&quot;&gt;Terima kasih telah&amp;nbsp;&lt;/font&gt;&lt;/div&gt;&lt;div style=&quot;text-align: left;&quot;&gt;&lt;font size=&quot;3&quot;&gt;menggunakan program&lt;/font&gt;&lt;/div&gt;" style="shape=parallelogram;html=1;strokeWidth=2;perimeter=parallelogramPerimeter;whiteSpace=wrap;rounded=1;arcSize=12;size=0.23;align=center;" parent="1" vertex="1">
          <mxGeometry x="2230" y="-955" width="250" height="140" as="geometry" />
        </mxCell>
        <mxCell id="WXKAW2A6yFPXHFqB-_A9-19" value="" style="endArrow=classic;html=1;rounded=0;exitX=1;exitY=0.75;exitDx=0;exitDy=0;" parent="1" edge="1">
          <mxGeometry width="50" height="50" relative="1" as="geometry">
            <mxPoint x="2360.0028699551563" y="-829.9995964125559" as="sourcePoint" />
            <mxPoint x="2480" y="-829.64" as="targetPoint" />
            <Array as="points" />
          </mxGeometry>
        </mxCell>
        <mxCell id="WXKAW2A6yFPXHFqB-_A9-93" style="edgeStyle=orthogonalEdgeStyle;rounded=0;orthogonalLoop=1;jettySize=auto;html=1;exitX=1;exitY=0.5;exitDx=0;exitDy=0;exitPerimeter=0;entryX=0;entryY=0.5;entryDx=0;entryDy=0;" parent="1" source="WXKAW2A6yFPXHFqB-_A9-21" target="WXKAW2A6yFPXHFqB-_A9-18" edge="1">
          <mxGeometry relative="1" as="geometry" />
        </mxCell>
        <mxCell id="WXKAW2A6yFPXHFqB-_A9-21" value="&lt;font style=&quot;font-size: 18px;&quot;&gt;pilih==3&lt;/font&gt;" style="strokeWidth=2;html=1;shape=mxgraph.flowchart.decision;whiteSpace=wrap;" parent="1" vertex="1">
          <mxGeometry x="1920" y="-960" width="160" height="150" as="geometry" />
        </mxCell>
        <mxCell id="WXKAW2A6yFPXHFqB-_A9-22" value="&lt;span style=&quot;font-size: 18px;&quot;&gt;END&lt;/span&gt;" style="strokeWidth=2;html=1;shape=mxgraph.flowchart.terminator;whiteSpace=wrap;fontFamily=Times New Roman;" parent="1" vertex="1">
          <mxGeometry x="314.5" y="1940" width="169.5" height="90" as="geometry" />
        </mxCell>
        <mxCell id="WXKAW2A6yFPXHFqB-_A9-24" style="edgeStyle=orthogonalEdgeStyle;rounded=0;orthogonalLoop=1;jettySize=auto;html=1;exitX=0;exitY=0.5;exitDx=0;exitDy=0;exitPerimeter=0;entryX=0.5;entryY=0;entryDx=0;entryDy=0;" parent="1" source="WXKAW2A6yFPXHFqB-_A9-9" target="WXKAW2A6yFPXHFqB-_A9-25" edge="1">
          <mxGeometry relative="1" as="geometry">
            <mxPoint x="-159.89999999999986" y="-391.59500000000025" as="targetPoint" />
          </mxGeometry>
        </mxCell>
        <mxCell id="WXKAW2A6yFPXHFqB-_A9-25" value="&lt;span style=&quot;font-size: 18px;&quot;&gt;INPUT USERNAME &amp;amp; PASSWORD&lt;/span&gt;" style="whiteSpace=wrap;html=1;" parent="1" vertex="1">
          <mxGeometry x="-263" y="-350" width="208" height="100" as="geometry" />
        </mxCell>
        <mxCell id="WXKAW2A6yFPXHFqB-_A9-26" value="" style="endArrow=classic;html=1;rounded=0;entryX=1;entryY=0.5;entryDx=0;entryDy=0;" parent="1" target="WXKAW2A6yFPXHFqB-_A9-6" edge="1">
          <mxGeometry width="50" height="50" relative="1" as="geometry">
            <mxPoint x="220" y="-500" as="sourcePoint" />
            <mxPoint x="170" y="-500" as="targetPoint" />
            <Array as="points" />
          </mxGeometry>
        </mxCell>
        <mxCell id="WXKAW2A6yFPXHFqB-_A9-30" value="&lt;span style=&quot;font-size: 18px;&quot;&gt;AKUN&amp;nbsp;&lt;/span&gt;&lt;span style=&quot;font-size: 18px; background-color: initial;&quot;&gt;USER&lt;/span&gt;" style="strokeWidth=2;html=1;shape=mxgraph.flowchart.decision;whiteSpace=wrap;" parent="1" vertex="1">
          <mxGeometry x="323.5" y="-332.5" width="153" height="140" as="geometry" />
        </mxCell>
        <mxCell id="WXKAW2A6yFPXHFqB-_A9-31" value="" style="endArrow=classic;html=1;rounded=0;entryX=0.496;entryY=-0.017;entryDx=0;entryDy=0;entryPerimeter=0;" parent="1" source="rXHbmidsyB8I2zzbeeDN-25" target="WXKAW2A6yFPXHFqB-_A9-30" edge="1">
          <mxGeometry width="50" height="50" relative="1" as="geometry">
            <mxPoint x="360" y="-360" as="sourcePoint" />
            <mxPoint x="410" y="-370" as="targetPoint" />
          </mxGeometry>
        </mxCell>
        <mxCell id="WXKAW2A6yFPXHFqB-_A9-32" value="&lt;span style=&quot;font-size: 18px;&quot;&gt;MENU USER&lt;/span&gt;" style="whiteSpace=wrap;html=1;" parent="1" vertex="1">
          <mxGeometry x="297.13" y="-95" width="210" height="100" as="geometry" />
        </mxCell>
        <mxCell id="WXKAW2A6yFPXHFqB-_A9-36" value="&lt;span style=&quot;font-size: 18px;&quot;&gt;MENU ADMIN&lt;/span&gt;" style="whiteSpace=wrap;html=1;" parent="1" vertex="1">
          <mxGeometry x="640" y="-312.5" width="210" height="100" as="geometry" />
        </mxCell>
        <mxCell id="5L33_iz6L0a8wc0iQSGg-4" style="edgeStyle=orthogonalEdgeStyle;rounded=0;orthogonalLoop=1;jettySize=auto;html=1;exitX=0;exitY=0.5;exitDx=0;exitDy=0;entryX=-0.007;entryY=0.921;entryDx=0;entryDy=0;entryPerimeter=0;" edge="1" parent="1" source="WXKAW2A6yFPXHFqB-_A9-39" target="WXKAW2A6yFPXHFqB-_A9-32">
          <mxGeometry relative="1" as="geometry">
            <mxPoint x="130" y="160" as="targetPoint" />
            <Array as="points">
              <mxPoint x="-180" y="395" />
              <mxPoint x="-180" y="-3" />
            </Array>
          </mxGeometry>
        </mxCell>
        <mxCell id="WXKAW2A6yFPXHFqB-_A9-39" value="&lt;font style=&quot;font-size: 18px;&quot;&gt;input&lt;br style=&quot;border-color: var(--border-color);&quot;&gt;&lt;/font&gt;&lt;div style=&quot;text-align: left;&quot;&gt;&lt;span style=&quot;background-color: initial;&quot;&gt;&lt;font style=&quot;font-size: 18px;&quot;&gt;1.NAMA&lt;/font&gt;&lt;/span&gt;&lt;/div&gt;&lt;div&gt;&lt;span style=&quot;background-color: initial;&quot;&gt;&lt;font style=&quot;font-size: 18px;&quot;&gt;2.NOMOR KONTAK&lt;/font&gt;&lt;/span&gt;&lt;/div&gt;&lt;div style=&quot;text-align: left;&quot;&gt;&lt;span style=&quot;background-color: initial;&quot;&gt;&lt;font style=&quot;font-size: 18px;&quot;&gt;3.EMAIL&lt;/font&gt;&lt;/span&gt;&lt;/div&gt;&lt;div style=&quot;text-align: left;&quot;&gt;&lt;span style=&quot;background-color: initial;&quot;&gt;&lt;font style=&quot;font-size: 18px;&quot;&gt;4. DOMISILI&lt;/font&gt;&lt;/span&gt;&lt;/div&gt;&lt;div style=&quot;text-align: left;&quot;&gt;&lt;span style=&quot;background-color: initial;&quot;&gt;&lt;font style=&quot;font-size: 18px;&quot;&gt;5. PEKERJAAN&lt;/font&gt;&lt;/span&gt;&lt;/div&gt;&lt;div style=&quot;text-align: left;&quot;&gt;&lt;br&gt;&lt;/div&gt;" style="shape=parallelogram;html=1;strokeWidth=2;perimeter=parallelogramPerimeter;whiteSpace=wrap;rounded=1;arcSize=12;size=0.23;align=center;" parent="1" vertex="1">
          <mxGeometry x="-110" y="324.5" width="250" height="140" as="geometry" />
        </mxCell>
        <mxCell id="WXKAW2A6yFPXHFqB-_A9-40" value="&lt;div style=&quot;text-align: left;&quot;&gt;&lt;font style=&quot;font-size: 18px;&quot;&gt;1.TAMBAH KONTAK KHUSUS&lt;/font&gt;&lt;/div&gt;&lt;div style=&quot;text-align: left;&quot;&gt;&lt;font style=&quot;font-size: 18px;&quot;&gt;2. TAMPILKAN SEMUA KONTAK&lt;/font&gt;&lt;/div&gt;&lt;div style=&quot;text-align: left;&quot;&gt;&lt;font size=&quot;3&quot;&gt;3. UBAH KONTAK KHUSUS&lt;/font&gt;&lt;/div&gt;&lt;div style=&quot;text-align: left;&quot;&gt;&lt;font size=&quot;3&quot;&gt;4. MENGHAPUS KONTAK KHUSUS&lt;/font&gt;&lt;/div&gt;&lt;div style=&quot;text-align: left;&quot;&gt;&lt;font size=&quot;3&quot;&gt;5. MELIHAT FEEDBACK&lt;/font&gt;&lt;/div&gt;&lt;div style=&quot;text-align: left;&quot;&gt;&lt;font size=&quot;3&quot;&gt;6 LOGOUT&lt;/font&gt;&lt;/div&gt;" style="whiteSpace=wrap;html=1;" parent="1" vertex="1">
          <mxGeometry x="640" y="-190" width="220" height="200" as="geometry" />
        </mxCell>
        <mxCell id="WXKAW2A6yFPXHFqB-_A9-43" style="edgeStyle=orthogonalEdgeStyle;rounded=0;orthogonalLoop=1;jettySize=auto;html=1;exitX=1;exitY=0.5;exitDx=0;exitDy=0;exitPerimeter=0;" parent="1" source="WXKAW2A6yFPXHFqB-_A9-41" edge="1">
          <mxGeometry relative="1" as="geometry">
            <mxPoint x="749.7419354838707" y="200" as="targetPoint" />
          </mxGeometry>
        </mxCell>
        <mxCell id="WXKAW2A6yFPXHFqB-_A9-76" style="edgeStyle=orthogonalEdgeStyle;rounded=0;orthogonalLoop=1;jettySize=auto;html=1;exitX=1;exitY=0.5;exitDx=0;exitDy=0;exitPerimeter=0;" parent="1" source="WXKAW2A6yFPXHFqB-_A9-41" target="rXHbmidsyB8I2zzbeeDN-56" edge="1">
          <mxGeometry relative="1" as="geometry" />
        </mxCell>
        <mxCell id="WXKAW2A6yFPXHFqB-_A9-41" value="&lt;span style=&quot;font-size: 18px;&quot;&gt;IF&lt;/span&gt;&lt;div&gt;&lt;span style=&quot;font-size: 18px;&quot;&gt;pilih==1&lt;/span&gt;&lt;/div&gt;" style="strokeWidth=2;html=1;shape=mxgraph.flowchart.decision;whiteSpace=wrap;direction=south;" parent="1" vertex="1">
          <mxGeometry x="674.13" y="80" width="151.74" height="153" as="geometry" />
        </mxCell>
        <mxCell id="WXKAW2A6yFPXHFqB-_A9-42" style="edgeStyle=orthogonalEdgeStyle;rounded=0;orthogonalLoop=1;jettySize=auto;html=1;exitX=0.5;exitY=1;exitDx=0;exitDy=0;entryX=0;entryY=0.5;entryDx=0;entryDy=0;entryPerimeter=0;" parent="1" source="WXKAW2A6yFPXHFqB-_A9-40" target="WXKAW2A6yFPXHFqB-_A9-41" edge="1">
          <mxGeometry relative="1" as="geometry">
            <Array as="points">
              <mxPoint x="750" y="20" />
            </Array>
          </mxGeometry>
        </mxCell>
        <mxCell id="WXKAW2A6yFPXHFqB-_A9-44" value="" style="edgeStyle=orthogonalEdgeStyle;rounded=0;orthogonalLoop=1;jettySize=auto;html=1;" parent="1" source="WXKAW2A6yFPXHFqB-_A9-61" target="WXKAW2A6yFPXHFqB-_A9-36" edge="1">
          <mxGeometry relative="1" as="geometry">
            <Array as="points">
              <mxPoint x="1680" y="640" />
              <mxPoint x="1680" y="-262" />
            </Array>
            <mxPoint x="1295.964125560538" y="522.3094170403592" as="sourcePoint" />
            <mxPoint x="960" y="-390" as="targetPoint" />
          </mxGeometry>
        </mxCell>
        <mxCell id="WXKAW2A6yFPXHFqB-_A9-52" value="&lt;font size=&quot;3&quot;&gt;input&lt;/font&gt;&lt;br&gt;&lt;div&gt;&lt;span style=&quot;font-size: medium; background-color: initial;&quot;&gt;1.NAMA KONTAK&amp;nbsp;&lt;/span&gt;&lt;/div&gt;&lt;div&gt;&lt;span style=&quot;font-size: medium; background-color: initial;&quot;&gt;KHUSUS&lt;/span&gt;&lt;/div&gt;&lt;div&gt;&lt;span style=&quot;font-size: medium; background-color: initial;&quot;&gt;2.NOMOR KONTAK&amp;nbsp;&lt;/span&gt;&lt;/div&gt;&lt;div&gt;&lt;span style=&quot;font-size: medium; background-color: initial;&quot;&gt;KHUSUS&lt;/span&gt;&lt;/div&gt;" style="shape=parallelogram;html=1;strokeWidth=2;perimeter=parallelogramPerimeter;whiteSpace=wrap;rounded=1;arcSize=12;size=0.23;align=center;" parent="1" vertex="1">
          <mxGeometry x="910" y="47" width="280" height="140" as="geometry" />
        </mxCell>
        <mxCell id="WXKAW2A6yFPXHFqB-_A9-56" value="" style="endArrow=classic;html=1;rounded=0;" parent="1" edge="1">
          <mxGeometry width="50" height="50" relative="1" as="geometry">
            <mxPoint x="920" y="70" as="sourcePoint" />
            <mxPoint x="1010" y="70" as="targetPoint" />
          </mxGeometry>
        </mxCell>
        <mxCell id="WXKAW2A6yFPXHFqB-_A9-61" value="&lt;font size=&quot;3&quot;&gt;input&lt;/font&gt;&lt;br&gt;&lt;div&gt;&lt;span style=&quot;font-size: medium; background-color: initial;&quot;&gt;1.NAMA KONTAK&amp;nbsp;&lt;/span&gt;&lt;/div&gt;&lt;div&gt;&lt;span style=&quot;font-size: medium; background-color: initial;&quot;&gt;KHUSUS BARU&lt;/span&gt;&lt;/div&gt;&lt;div&gt;&lt;span style=&quot;font-size: medium; background-color: initial;&quot;&gt;2.NOMOR KONTAK&amp;nbsp;&lt;/span&gt;&lt;/div&gt;&lt;div&gt;&lt;span style=&quot;font-size: medium; background-color: initial;&quot;&gt;KHUSUS BARU&lt;/span&gt;&lt;/div&gt;" style="shape=parallelogram;html=1;strokeWidth=2;perimeter=parallelogramPerimeter;whiteSpace=wrap;rounded=1;arcSize=12;size=0.23;align=center;" parent="1" vertex="1">
          <mxGeometry x="1260" y="577.5" width="280" height="140" as="geometry" />
        </mxCell>
        <mxCell id="WXKAW2A6yFPXHFqB-_A9-66" value="" style="endArrow=classic;html=1;rounded=0;" parent="1" edge="1">
          <mxGeometry width="50" height="50" relative="1" as="geometry">
            <mxPoint x="910" y="129" as="sourcePoint" />
            <mxPoint x="938" y="128.61" as="targetPoint" />
          </mxGeometry>
        </mxCell>
        <mxCell id="WXKAW2A6yFPXHFqB-_A9-67" value="&lt;span style=&quot;font-size: 18px;&quot;&gt;IF&lt;/span&gt;&lt;div&gt;&lt;span style=&quot;font-size: 18px;&quot;&gt;pilih==5&lt;/span&gt;&lt;/div&gt;" style="strokeWidth=2;html=1;shape=mxgraph.flowchart.decision;whiteSpace=wrap;direction=south;" parent="1" vertex="1">
          <mxGeometry x="324.13" y="1290" width="151.74" height="153" as="geometry" />
        </mxCell>
        <mxCell id="WXKAW2A6yFPXHFqB-_A9-88" style="edgeStyle=orthogonalEdgeStyle;rounded=0;orthogonalLoop=1;jettySize=auto;html=1;entryX=0;entryY=0.5;entryDx=0;entryDy=0;" parent="1" source="-HIsrEYuNSBhbyxjXifA-12" target="WXKAW2A6yFPXHFqB-_A9-87" edge="1">
          <mxGeometry relative="1" as="geometry" />
        </mxCell>
        <mxCell id="WXKAW2A6yFPXHFqB-_A9-68" value="&lt;span style=&quot;font-size: 18px;&quot;&gt;IF&lt;/span&gt;&lt;div&gt;&lt;span style=&quot;font-size: 18px;&quot;&gt;pilih==4&lt;/span&gt;&lt;/div&gt;" style="strokeWidth=2;html=1;shape=mxgraph.flowchart.decision;whiteSpace=wrap;direction=south;" parent="1" vertex="1">
          <mxGeometry x="675.87" y="800" width="151.74" height="153" as="geometry" />
        </mxCell>
        <mxCell id="WXKAW2A6yFPXHFqB-_A9-69" value="&lt;span style=&quot;font-size: 18px;&quot;&gt;IF&lt;/span&gt;&lt;div&gt;&lt;span style=&quot;font-size: 18px;&quot;&gt;pilih==4&lt;/span&gt;&lt;/div&gt;" style="strokeWidth=2;html=1;shape=mxgraph.flowchart.decision;whiteSpace=wrap;direction=south;" parent="1" vertex="1">
          <mxGeometry x="324.13" y="1046" width="151.74" height="153" as="geometry" />
        </mxCell>
        <mxCell id="WXKAW2A6yFPXHFqB-_A9-70" value="&lt;span style=&quot;font-size: 18px;&quot;&gt;IF&lt;/span&gt;&lt;div&gt;&lt;span style=&quot;font-size: 18px;&quot;&gt;pilih==3&lt;/span&gt;&lt;/div&gt;" style="strokeWidth=2;html=1;shape=mxgraph.flowchart.decision;whiteSpace=wrap;direction=south;" parent="1" vertex="1">
          <mxGeometry x="675.87" y="564.5" width="151.74" height="153" as="geometry" />
        </mxCell>
        <mxCell id="WXKAW2A6yFPXHFqB-_A9-72" value="&lt;span style=&quot;font-size: 18px;&quot;&gt;IF&lt;/span&gt;&lt;div&gt;&lt;span style=&quot;font-size: 18px;&quot;&gt;pilih==3&lt;/span&gt;&lt;/div&gt;" style="strokeWidth=2;html=1;shape=mxgraph.flowchart.decision;whiteSpace=wrap;direction=south;" parent="1" vertex="1">
          <mxGeometry x="322.38" y="800" width="151.74" height="153" as="geometry" />
        </mxCell>
        <mxCell id="WXKAW2A6yFPXHFqB-_A9-133" style="edgeStyle=orthogonalEdgeStyle;rounded=0;orthogonalLoop=1;jettySize=auto;html=1;exitX=0.5;exitY=1;exitDx=0;exitDy=0;exitPerimeter=0;" parent="1" source="WXKAW2A6yFPXHFqB-_A9-73" edge="1">
          <mxGeometry relative="1" as="geometry">
            <mxPoint x="290" y="640.8000000000002" as="targetPoint" />
          </mxGeometry>
        </mxCell>
        <mxCell id="WXKAW2A6yFPXHFqB-_A9-73" value="&lt;span style=&quot;font-size: 18px;&quot;&gt;IF&lt;/span&gt;&lt;div&gt;&lt;span style=&quot;font-size: 18px;&quot;&gt;pilih==2&lt;/span&gt;&lt;/div&gt;" style="strokeWidth=2;html=1;shape=mxgraph.flowchart.decision;whiteSpace=wrap;direction=south;" parent="1" vertex="1">
          <mxGeometry x="324.13" y="564.5" width="151.74" height="153" as="geometry" />
        </mxCell>
        <mxCell id="gUQQYlxxlWg2NasRCSm_-62" style="edgeStyle=orthogonalEdgeStyle;rounded=0;orthogonalLoop=1;jettySize=auto;html=1;exitX=0.5;exitY=1;exitDx=0;exitDy=0;exitPerimeter=0;" parent="1" source="WXKAW2A6yFPXHFqB-_A9-74" edge="1">
          <mxGeometry relative="1" as="geometry">
            <mxPoint x="270" y="400.36363636363603" as="targetPoint" />
          </mxGeometry>
        </mxCell>
        <mxCell id="WXKAW2A6yFPXHFqB-_A9-74" value="&lt;span style=&quot;font-size: 18px;&quot;&gt;IF&lt;/span&gt;&lt;div&gt;&lt;span style=&quot;font-size: 18px;&quot;&gt;pilih==1&lt;/span&gt;&lt;/div&gt;" style="strokeWidth=2;html=1;shape=mxgraph.flowchart.decision;whiteSpace=wrap;direction=south;" parent="1" vertex="1">
          <mxGeometry x="323.38" y="324.5" width="151.74" height="153" as="geometry" />
        </mxCell>
        <mxCell id="WXKAW2A6yFPXHFqB-_A9-75" value="" style="endArrow=classic;html=1;rounded=0;exitX=0.5;exitY=1;exitDx=0;exitDy=0;entryX=0.5;entryY=0;entryDx=0;entryDy=0;entryPerimeter=0;exitPerimeter=0;" parent="1" target="WXKAW2A6yFPXHFqB-_A9-71" edge="1">
          <mxGeometry width="50" height="50" relative="1" as="geometry">
            <mxPoint x="750" y="370" as="sourcePoint" />
            <mxPoint x="685" y="370" as="targetPoint" />
          </mxGeometry>
        </mxCell>
        <mxCell id="WXKAW2A6yFPXHFqB-_A9-78" style="edgeStyle=orthogonalEdgeStyle;rounded=0;orthogonalLoop=1;jettySize=auto;html=1;exitX=0.5;exitY=0;exitDx=0;exitDy=0;exitPerimeter=0;" parent="1" source="WXKAW2A6yFPXHFqB-_A9-71" edge="1">
          <mxGeometry relative="1" as="geometry">
            <mxPoint x="860" y="401" as="targetPoint" />
          </mxGeometry>
        </mxCell>
        <mxCell id="WXKAW2A6yFPXHFqB-_A9-71" value="&lt;span style=&quot;font-size: 18px;&quot;&gt;IF&lt;/span&gt;&lt;div&gt;&lt;span style=&quot;font-size: 18px;&quot;&gt;pilih==2&lt;/span&gt;&lt;/div&gt;" style="strokeWidth=2;html=1;shape=mxgraph.flowchart.decision;whiteSpace=wrap;direction=south;" parent="1" vertex="1">
          <mxGeometry x="674.13" y="324.5" width="151.74" height="153" as="geometry" />
        </mxCell>
        <mxCell id="WXKAW2A6yFPXHFqB-_A9-77" value="" style="endArrow=classic;html=1;rounded=0;entryX=0;entryY=0.5;entryDx=0;entryDy=0;entryPerimeter=0;exitX=0.496;exitY=0.958;exitDx=0;exitDy=0;exitPerimeter=0;" parent="1" source="rXHbmidsyB8I2zzbeeDN-56" target="WXKAW2A6yFPXHFqB-_A9-71" edge="1">
          <mxGeometry width="50" height="50" relative="1" as="geometry">
            <mxPoint x="725" y="328.75" as="sourcePoint" />
            <mxPoint x="775" y="278.75" as="targetPoint" />
          </mxGeometry>
        </mxCell>
        <mxCell id="WXKAW2A6yFPXHFqB-_A9-80" value="&lt;span style=&quot;font-size: 18px;&quot;&gt;Tampilkan Semua Kontak&lt;/span&gt;" style="whiteSpace=wrap;html=1;" parent="1" vertex="1">
          <mxGeometry x="970" y="351" width="210" height="100" as="geometry" />
        </mxCell>
        <mxCell id="WXKAW2A6yFPXHFqB-_A9-97" style="edgeStyle=orthogonalEdgeStyle;rounded=0;orthogonalLoop=1;jettySize=auto;html=1;exitX=1;exitY=0.5;exitDx=0;exitDy=0;entryX=0.12;entryY=0.441;entryDx=0;entryDy=0;entryPerimeter=0;" parent="1" source="WXKAW2A6yFPXHFqB-_A9-81" target="WXKAW2A6yFPXHFqB-_A9-61" edge="1">
          <mxGeometry relative="1" as="geometry">
            <Array as="points">
              <mxPoint x="1180" y="639" />
            </Array>
          </mxGeometry>
        </mxCell>
        <mxCell id="WXKAW2A6yFPXHFqB-_A9-81" value="&lt;span style=&quot;font-size: 18px;&quot;&gt;ubah kontak khusus&lt;/span&gt;" style="whiteSpace=wrap;html=1;" parent="1" vertex="1">
          <mxGeometry x="970" y="580" width="210" height="100" as="geometry" />
        </mxCell>
        <mxCell id="WXKAW2A6yFPXHFqB-_A9-82" style="edgeStyle=orthogonalEdgeStyle;rounded=0;orthogonalLoop=1;jettySize=auto;html=1;exitX=1;exitY=0.5;exitDx=0;exitDy=0;exitPerimeter=0;entryX=0.482;entryY=0.008;entryDx=0;entryDy=0;entryPerimeter=0;" parent="1" source="WXKAW2A6yFPXHFqB-_A9-71" target="gV-HkSjfAiAgL5ac0c7B-23" edge="1">
          <mxGeometry relative="1" as="geometry" />
        </mxCell>
        <mxCell id="WXKAW2A6yFPXHFqB-_A9-83" value="" style="endArrow=classic;html=1;rounded=0;entryX=0;entryY=0.5;entryDx=0;entryDy=0;entryPerimeter=0;" parent="1" source="gV-HkSjfAiAgL5ac0c7B-23" target="WXKAW2A6yFPXHFqB-_A9-70" edge="1">
          <mxGeometry width="50" height="50" relative="1" as="geometry">
            <mxPoint x="720" y="565" as="sourcePoint" />
            <mxPoint x="770" y="515" as="targetPoint" />
          </mxGeometry>
        </mxCell>
        <mxCell id="WXKAW2A6yFPXHFqB-_A9-86" value="" style="endArrow=classic;html=1;rounded=0;" parent="1" edge="1">
          <mxGeometry width="50" height="50" relative="1" as="geometry">
            <mxPoint x="1450" y="700" as="sourcePoint" />
            <mxPoint x="1540" y="701" as="targetPoint" />
          </mxGeometry>
        </mxCell>
        <mxCell id="gUQQYlxxlWg2NasRCSm_-60" style="edgeStyle=orthogonalEdgeStyle;rounded=0;orthogonalLoop=1;jettySize=auto;html=1;exitX=1;exitY=0.5;exitDx=0;exitDy=0;" parent="1" source="WXKAW2A6yFPXHFqB-_A9-87" target="WXKAW2A6yFPXHFqB-_A9-36" edge="1">
          <mxGeometry relative="1" as="geometry">
            <mxPoint x="1240" y="-1020" as="targetPoint" />
            <Array as="points">
              <mxPoint x="1840" y="877" />
              <mxPoint x="1840" y="-280" />
            </Array>
          </mxGeometry>
        </mxCell>
        <mxCell id="WXKAW2A6yFPXHFqB-_A9-87" value="&lt;span style=&quot;font-size: 18px;&quot;&gt;Hapus Kontak Khusus&lt;/span&gt;" style="whiteSpace=wrap;html=1;" parent="1" vertex="1">
          <mxGeometry x="970" y="826.5" width="210" height="100" as="geometry" />
        </mxCell>
        <mxCell id="WXKAW2A6yFPXHFqB-_A9-92" style="edgeStyle=orthogonalEdgeStyle;rounded=0;orthogonalLoop=1;jettySize=auto;html=1;exitX=0.5;exitY=1;exitDx=0;exitDy=0;exitPerimeter=0;entryX=0.5;entryY=0;entryDx=0;entryDy=0;entryPerimeter=0;" parent="1" source="rXHbmidsyB8I2zzbeeDN-110" target="WXKAW2A6yFPXHFqB-_A9-21" edge="1">
          <mxGeometry relative="1" as="geometry" />
        </mxCell>
        <mxCell id="WXKAW2A6yFPXHFqB-_A9-95" style="edgeStyle=orthogonalEdgeStyle;rounded=0;orthogonalLoop=1;jettySize=auto;html=1;entryX=-0.008;entryY=0.605;entryDx=0;entryDy=0;entryPerimeter=0;" parent="1" source="-HIsrEYuNSBhbyxjXifA-13" target="WXKAW2A6yFPXHFqB-_A9-81" edge="1">
          <mxGeometry relative="1" as="geometry">
            <Array as="points">
              <mxPoint x="922" y="640" />
            </Array>
          </mxGeometry>
        </mxCell>
        <mxCell id="WXKAW2A6yFPXHFqB-_A9-98" value="" style="endArrow=classic;html=1;rounded=0;" parent="1" edge="1">
          <mxGeometry width="50" height="50" relative="1" as="geometry">
            <mxPoint x="-105" y="340" as="sourcePoint" />
            <mxPoint x="-25" y="340" as="targetPoint" />
          </mxGeometry>
        </mxCell>
        <mxCell id="WXKAW2A6yFPXHFqB-_A9-99" value="" style="endArrow=classic;html=1;rounded=0;entryX=0.5;entryY=0;entryDx=0;entryDy=0;entryPerimeter=0;exitX=0.5;exitY=1;exitDx=0;exitDy=0;" parent="1" target="WXKAW2A6yFPXHFqB-_A9-33" edge="1">
          <mxGeometry width="50" height="50" relative="1" as="geometry">
            <mxPoint x="397.25" y="155" as="sourcePoint" />
            <mxPoint x="433.5" y="210" as="targetPoint" />
          </mxGeometry>
        </mxCell>
        <mxCell id="WXKAW2A6yFPXHFqB-_A9-105" style="edgeStyle=orthogonalEdgeStyle;rounded=0;orthogonalLoop=1;jettySize=auto;html=1;exitX=0.5;exitY=1;exitDx=0;exitDy=0;entryX=0;entryY=0.5;entryDx=0;entryDy=0;entryPerimeter=0;" parent="1" source="WXKAW2A6yFPXHFqB-_A9-33" target="WXKAW2A6yFPXHFqB-_A9-74" edge="1">
          <mxGeometry relative="1" as="geometry">
            <Array as="points">
              <mxPoint x="397" y="207" />
              <mxPoint x="399" y="207" />
            </Array>
            <mxPoint x="400.090909090909" y="260" as="targetPoint" />
          </mxGeometry>
        </mxCell>
        <mxCell id="WXKAW2A6yFPXHFqB-_A9-33" value="&lt;div style=&quot;text-align: left;&quot;&gt;&lt;font style=&quot;font-size: 18px;&quot;&gt;1&lt;/font&gt;&lt;font style=&quot;font-size: 14px;&quot;&gt;.TAMBAH KONTAK&amp;nbsp;&lt;/font&gt;&lt;/div&gt;&lt;div style=&quot;text-align: left;&quot;&gt;&lt;font size=&quot;3&quot; style=&quot;&quot;&gt;2. LIHAT SEMUA KONTAK&lt;/font&gt;&lt;/div&gt;&lt;div style=&quot;text-align: left;&quot;&gt;&lt;font size=&quot;3&quot;&gt;3. UBAH KONTAK&amp;nbsp;&lt;/font&gt;&lt;/div&gt;&lt;div style=&quot;text-align: left;&quot;&gt;&lt;font size=&quot;3&quot;&gt;4. HAPUS KONTAK&lt;/font&gt;&lt;/div&gt;&lt;div style=&quot;text-align: left;&quot;&gt;&lt;font size=&quot;3&quot;&gt;5. FEEDBACK&lt;/font&gt;&lt;/div&gt;&lt;div style=&quot;text-align: left;&quot;&gt;&lt;font size=&quot;3&quot;&gt;6. LOG OUT&lt;/font&gt;&lt;/div&gt;" style="whiteSpace=wrap;html=1;" parent="1" vertex="1">
          <mxGeometry x="292.25" y="80" width="210" height="130" as="geometry" />
        </mxCell>
        <mxCell id="WXKAW2A6yFPXHFqB-_A9-103" style="edgeStyle=orthogonalEdgeStyle;rounded=0;orthogonalLoop=1;jettySize=auto;html=1;exitX=0.484;exitY=1.001;exitDx=0;exitDy=0;exitPerimeter=0;entryX=0.512;entryY=-0.008;entryDx=0;entryDy=0;entryPerimeter=0;" parent="1" source="WXKAW2A6yFPXHFqB-_A9-32" target="WXKAW2A6yFPXHFqB-_A9-33" edge="1">
          <mxGeometry relative="1" as="geometry">
            <mxPoint x="399" y="90" as="targetPoint" />
            <Array as="points">
              <mxPoint x="400" y="5" />
              <mxPoint x="400" y="90" />
              <mxPoint x="400" y="90" />
            </Array>
          </mxGeometry>
        </mxCell>
        <mxCell id="WXKAW2A6yFPXHFqB-_A9-107" style="edgeStyle=orthogonalEdgeStyle;rounded=0;orthogonalLoop=1;jettySize=auto;html=1;exitX=1;exitY=0.5;exitDx=0;exitDy=0;exitPerimeter=0;entryX=0.495;entryY=0.125;entryDx=0;entryDy=0;entryPerimeter=0;" parent="1" source="WXKAW2A6yFPXHFqB-_A9-74" target="NfpK6JRWBrip7_dLDp5m-23" edge="1">
          <mxGeometry relative="1" as="geometry" />
        </mxCell>
        <mxCell id="WXKAW2A6yFPXHFqB-_A9-108" value="" style="endArrow=classic;html=1;rounded=0;" parent="1" target="NfpK6JRWBrip7_dLDp5m-29" edge="1">
          <mxGeometry width="50" height="50" relative="1" as="geometry">
            <mxPoint x="430" y="740" as="sourcePoint" />
            <mxPoint x="428.61538461538476" y="785" as="targetPoint" />
          </mxGeometry>
        </mxCell>
        <mxCell id="NfpK6JRWBrip7_dLDp5m-29" value="&lt;font style=&quot;font-size: 18px;&quot;&gt;TIDAK&lt;/font&gt;" style="text;html=1;align=center;verticalAlign=middle;resizable=0;points=[];autosize=1;strokeColor=none;fillColor=none;" parent="1" vertex="1">
          <mxGeometry x="359.25" y="740" width="80" height="40" as="geometry" />
        </mxCell>
        <mxCell id="WXKAW2A6yFPXHFqB-_A9-109" style="edgeStyle=orthogonalEdgeStyle;rounded=0;orthogonalLoop=1;jettySize=auto;html=1;exitX=1;exitY=0.5;exitDx=0;exitDy=0;exitPerimeter=0;entryX=0.506;entryY=0.018;entryDx=0;entryDy=0;entryPerimeter=0;" parent="1" source="WXKAW2A6yFPXHFqB-_A9-73" target="NfpK6JRWBrip7_dLDp5m-29" edge="1">
          <mxGeometry relative="1" as="geometry" />
        </mxCell>
        <mxCell id="WXKAW2A6yFPXHFqB-_A9-110" style="edgeStyle=orthogonalEdgeStyle;rounded=0;orthogonalLoop=1;jettySize=auto;html=1;exitX=1;exitY=0.5;exitDx=0;exitDy=0;exitPerimeter=0;entryX=0.51;entryY=0.043;entryDx=0;entryDy=0;entryPerimeter=0;" parent="1" source="WXKAW2A6yFPXHFqB-_A9-72" target="NfpK6JRWBrip7_dLDp5m-37" edge="1">
          <mxGeometry relative="1" as="geometry" />
        </mxCell>
        <mxCell id="WXKAW2A6yFPXHFqB-_A9-111" value="&lt;font style=&quot;font-size: 18px;&quot;&gt;TIDAK&lt;/font&gt;" style="text;html=1;align=center;verticalAlign=middle;resizable=0;points=[];autosize=1;strokeColor=none;fillColor=none;" parent="1" vertex="1">
          <mxGeometry x="357.25" y="1220" width="80" height="40" as="geometry" />
        </mxCell>
        <mxCell id="WXKAW2A6yFPXHFqB-_A9-113" style="edgeStyle=orthogonalEdgeStyle;rounded=0;orthogonalLoop=1;jettySize=auto;html=1;exitX=1;exitY=0.5;exitDx=0;exitDy=0;exitPerimeter=0;entryX=0.533;entryY=0.046;entryDx=0;entryDy=0;entryPerimeter=0;" parent="1" source="WXKAW2A6yFPXHFqB-_A9-69" target="WXKAW2A6yFPXHFqB-_A9-111" edge="1">
          <mxGeometry relative="1" as="geometry" />
        </mxCell>
        <mxCell id="WXKAW2A6yFPXHFqB-_A9-115" style="edgeStyle=orthogonalEdgeStyle;rounded=0;orthogonalLoop=1;jettySize=auto;html=1;exitX=0.5;exitY=1;exitDx=0;exitDy=0;exitPerimeter=0;entryX=1.14;entryY=0.471;entryDx=0;entryDy=0;entryPerimeter=0;" parent="1" source="WXKAW2A6yFPXHFqB-_A9-67" target="NfpK6JRWBrip7_dLDp5m-39" edge="1">
          <mxGeometry relative="1" as="geometry">
            <Array as="points">
              <mxPoint x="324" y="1365" />
            </Array>
          </mxGeometry>
        </mxCell>
        <mxCell id="WXKAW2A6yFPXHFqB-_A9-116" style="edgeStyle=orthogonalEdgeStyle;rounded=0;orthogonalLoop=1;jettySize=auto;html=1;exitX=0.5;exitY=1;exitDx=0;exitDy=0;exitPerimeter=0;entryX=1.04;entryY=0.579;entryDx=0;entryDy=0;entryPerimeter=0;" parent="1" source="WXKAW2A6yFPXHFqB-_A9-69" target="NfpK6JRWBrip7_dLDp5m-35" edge="1">
          <mxGeometry relative="1" as="geometry" />
        </mxCell>
        <mxCell id="gUQQYlxxlWg2NasRCSm_-47" style="edgeStyle=orthogonalEdgeStyle;rounded=0;orthogonalLoop=1;jettySize=auto;html=1;exitX=0;exitY=0.5;exitDx=0;exitDy=0;" parent="1" source="WXKAW2A6yFPXHFqB-_A9-117" target="gUQQYlxxlWg2NasRCSm_-44" edge="1">
          <mxGeometry relative="1" as="geometry" />
        </mxCell>
        <mxCell id="WXKAW2A6yFPXHFqB-_A9-117" value="&lt;span style=&quot;font-size: 18px;&quot;&gt;Feedback&lt;/span&gt;" style="whiteSpace=wrap;html=1;" parent="1" vertex="1">
          <mxGeometry x="-80" y="1316.5" width="210" height="100" as="geometry" />
        </mxCell>
        <mxCell id="5L33_iz6L0a8wc0iQSGg-9" style="edgeStyle=orthogonalEdgeStyle;rounded=0;orthogonalLoop=1;jettySize=auto;html=1;exitX=0;exitY=0.5;exitDx=0;exitDy=0;" edge="1" parent="1" source="WXKAW2A6yFPXHFqB-_A9-118">
          <mxGeometry relative="1" as="geometry">
            <mxPoint x="300" y="-60" as="targetPoint" />
            <Array as="points">
              <mxPoint x="-760" y="1123" />
              <mxPoint x="-760" y="-60" />
              <mxPoint x="297" y="-60" />
            </Array>
          </mxGeometry>
        </mxCell>
        <mxCell id="WXKAW2A6yFPXHFqB-_A9-118" value="&lt;span style=&quot;font-size: 18px;&quot;&gt;Hapus Kontak&lt;/span&gt;" style="whiteSpace=wrap;html=1;" parent="1" vertex="1">
          <mxGeometry x="-80" y="1072.5" width="210" height="100" as="geometry" />
        </mxCell>
        <mxCell id="WXKAW2A6yFPXHFqB-_A9-119" value="" style="endArrow=classic;html=1;rounded=0;entryX=1;entryY=0.5;entryDx=0;entryDy=0;" parent="1" target="WXKAW2A6yFPXHFqB-_A9-118" edge="1">
          <mxGeometry width="50" height="50" relative="1" as="geometry">
            <mxPoint x="190" y="1123" as="sourcePoint" />
            <mxPoint x="150" y="1130" as="targetPoint" />
          </mxGeometry>
        </mxCell>
        <mxCell id="WXKAW2A6yFPXHFqB-_A9-120" value="&lt;span style=&quot;font-size: 18px;&quot;&gt;Ubah Kontak&lt;/span&gt;" style="whiteSpace=wrap;html=1;" parent="1" vertex="1">
          <mxGeometry x="-80" y="830" width="210" height="100" as="geometry" />
        </mxCell>
        <mxCell id="WXKAW2A6yFPXHFqB-_A9-121" style="edgeStyle=orthogonalEdgeStyle;rounded=0;orthogonalLoop=1;jettySize=auto;html=1;exitX=0.5;exitY=1;exitDx=0;exitDy=0;exitPerimeter=0;entryX=1.083;entryY=0.394;entryDx=0;entryDy=0;entryPerimeter=0;" parent="1" source="WXKAW2A6yFPXHFqB-_A9-72" target="NfpK6JRWBrip7_dLDp5m-31" edge="1">
          <mxGeometry relative="1" as="geometry" />
        </mxCell>
        <mxCell id="WXKAW2A6yFPXHFqB-_A9-122" value="&lt;font size=&quot;3&quot;&gt;input&lt;/font&gt;&lt;br&gt;&lt;div&gt;&lt;span style=&quot;font-size: medium; background-color: initial;&quot;&gt;1.NAMA BARU&amp;nbsp;&lt;/span&gt;&lt;/div&gt;&lt;div&gt;&lt;span style=&quot;font-size: medium; background-color: initial;&quot;&gt;2.NOMOR KONTAK&amp;nbsp;&lt;/span&gt;&lt;/div&gt;&lt;div&gt;&lt;font size=&quot;3&quot;&gt;BARU&lt;/font&gt;&lt;/div&gt;&lt;div&gt;&lt;font size=&quot;3&quot;&gt;3.EMAIL BARU&lt;/font&gt;&lt;/div&gt;&lt;div&gt;&lt;font size=&quot;3&quot;&gt;4. DOMISILI BARU&lt;/font&gt;&lt;/div&gt;&lt;div&gt;&lt;font size=&quot;3&quot;&gt;5. PEKERJAAN BARU&lt;/font&gt;&lt;/div&gt;&lt;div&gt;&lt;br&gt;&lt;/div&gt;" style="shape=parallelogram;html=1;strokeWidth=2;perimeter=parallelogramPerimeter;whiteSpace=wrap;rounded=1;arcSize=12;size=0.23;align=center;" parent="1" vertex="1">
          <mxGeometry x="-510" y="790" width="280" height="140" as="geometry" />
        </mxCell>
        <mxCell id="WXKAW2A6yFPXHFqB-_A9-124" value="" style="endArrow=classic;html=1;rounded=0;" parent="1" edge="1">
          <mxGeometry width="50" height="50" relative="1" as="geometry">
            <mxPoint x="-500" y="800" as="sourcePoint" />
            <mxPoint x="-410" y="800" as="targetPoint" />
          </mxGeometry>
        </mxCell>
        <mxCell id="WXKAW2A6yFPXHFqB-_A9-127" style="edgeStyle=orthogonalEdgeStyle;rounded=0;orthogonalLoop=1;jettySize=auto;html=1;exitX=0;exitY=0.5;exitDx=0;exitDy=0;entryX=0.857;entryY=0.643;entryDx=0;entryDy=0;entryPerimeter=0;" parent="1" source="WXKAW2A6yFPXHFqB-_A9-120" target="WXKAW2A6yFPXHFqB-_A9-122" edge="1">
          <mxGeometry relative="1" as="geometry" />
        </mxCell>
        <mxCell id="5L33_iz6L0a8wc0iQSGg-8" style="edgeStyle=orthogonalEdgeStyle;rounded=0;orthogonalLoop=1;jettySize=auto;html=1;exitX=0;exitY=0.5;exitDx=0;exitDy=0;entryX=0.014;entryY=0.55;entryDx=0;entryDy=0;entryPerimeter=0;" edge="1" parent="1" source="WXKAW2A6yFPXHFqB-_A9-122" target="WXKAW2A6yFPXHFqB-_A9-32">
          <mxGeometry relative="1" as="geometry">
            <mxPoint x="20" y="50" as="targetPoint" />
            <mxPoint x="-600" y="560" as="sourcePoint" />
            <Array as="points">
              <mxPoint x="-600" y="860" />
              <mxPoint x="-600" y="-40" />
            </Array>
          </mxGeometry>
        </mxCell>
        <mxCell id="5L33_iz6L0a8wc0iQSGg-6" style="edgeStyle=orthogonalEdgeStyle;rounded=0;orthogonalLoop=1;jettySize=auto;html=1;exitX=0;exitY=0.5;exitDx=0;exitDy=0;entryX=0;entryY=0.75;entryDx=0;entryDy=0;" edge="1" parent="1" source="WXKAW2A6yFPXHFqB-_A9-130" target="WXKAW2A6yFPXHFqB-_A9-32">
          <mxGeometry relative="1" as="geometry">
            <mxPoint x="-200" y="100" as="targetPoint" />
            <Array as="points">
              <mxPoint x="-290" y="641" />
              <mxPoint x="-290" y="-20" />
            </Array>
          </mxGeometry>
        </mxCell>
        <mxCell id="WXKAW2A6yFPXHFqB-_A9-130" value="&lt;span style=&quot;font-size: 18px;&quot;&gt;Lihat Kontak&lt;/span&gt;" style="whiteSpace=wrap;html=1;" parent="1" vertex="1">
          <mxGeometry x="-80" y="591" width="210" height="100" as="geometry" />
        </mxCell>
        <mxCell id="gUQQYlxxlWg2NasRCSm_-3" style="edgeStyle=orthogonalEdgeStyle;rounded=0;orthogonalLoop=1;jettySize=auto;html=1;exitX=0.5;exitY=1;exitDx=0;exitDy=0;entryX=0.5;entryY=0;entryDx=0;entryDy=0;entryPerimeter=0;" parent="1" source="rXHbmidsyB8I2zzbeeDN-6" target="rXHbmidsyB8I2zzbeeDN-107" edge="1">
          <mxGeometry relative="1" as="geometry" />
        </mxCell>
        <mxCell id="gUQQYlxxlWg2NasRCSm_-7" style="edgeStyle=orthogonalEdgeStyle;rounded=0;orthogonalLoop=1;jettySize=auto;html=1;entryX=0.5;entryY=0;entryDx=0;entryDy=0;" parent="1" target="rXHbmidsyB8I2zzbeeDN-6" edge="1">
          <mxGeometry relative="1" as="geometry">
            <mxPoint x="397" y="-1540" as="sourcePoint" />
          </mxGeometry>
        </mxCell>
        <mxCell id="gUQQYlxxlWg2NasRCSm_-43" value="&lt;div&gt;&lt;div style=&quot;text-align: left;&quot;&gt;&lt;font style=&quot;text-align: center; font-size: 14px;&quot;&gt;&amp;nbsp; &amp;nbsp; &amp;nbsp; &amp;nbsp; &amp;nbsp; &amp;nbsp; &amp;nbsp; &amp;nbsp; &amp;nbsp; &amp;nbsp; &amp;nbsp; &amp;nbsp;output&lt;/font&gt;&lt;div style=&quot;text-align: center;&quot;&gt;&lt;font size=&quot;3&quot;&gt;&quot;Manajemen Kontak Informasi&quot;&amp;nbsp;&lt;/font&gt;&lt;div&gt;&lt;font size=&quot;3&quot;&gt;Ahnaf Aliyyu (2409106035)&lt;/font&gt;&lt;/div&gt;&lt;div&gt;&lt;font size=&quot;3&quot;&gt;Nabila Putri Karni (2409106041)&lt;/font&gt;&lt;/div&gt;&lt;div&gt;&lt;font size=&quot;3&quot;&gt;Dwi Prasetyawan (2409106028)&lt;/font&gt;&lt;/div&gt;&lt;/div&gt;&lt;/div&gt;&lt;/div&gt;" style="shape=parallelogram;html=1;strokeWidth=2;perimeter=parallelogramPerimeter;whiteSpace=wrap;rounded=1;arcSize=12;size=0.23;align=center;" parent="1" vertex="1">
          <mxGeometry x="210" y="-1720" width="362.25" height="180" as="geometry" />
        </mxCell>
        <mxCell id="gUQQYlxxlWg2NasRCSm_-49" value="" style="edgeStyle=orthogonalEdgeStyle;rounded=0;orthogonalLoop=1;jettySize=auto;html=1;" parent="1" source="gUQQYlxxlWg2NasRCSm_-44" target="gUQQYlxxlWg2NasRCSm_-45" edge="1">
          <mxGeometry relative="1" as="geometry" />
        </mxCell>
        <mxCell id="gUQQYlxxlWg2NasRCSm_-44" value="&lt;div&gt;&lt;font size=&quot;3&quot;&gt;input&lt;/font&gt;&lt;/div&gt;&lt;div&gt;&lt;font size=&quot;3&quot;&gt;Masukkan username dan&lt;/font&gt;&lt;/div&gt;&lt;div&gt;&lt;font size=&quot;3&quot;&gt;&amp;nbsp;feedback&amp;nbsp;&lt;/font&gt;&lt;/div&gt;&lt;div&gt;&lt;br&gt;&lt;/div&gt;" style="shape=parallelogram;html=1;strokeWidth=2;perimeter=parallelogramPerimeter;whiteSpace=wrap;rounded=1;arcSize=12;size=0.23;align=center;" parent="1" vertex="1">
          <mxGeometry x="-425" y="1296.5" width="280" height="140" as="geometry" />
        </mxCell>
        <mxCell id="gUQQYlxxlWg2NasRCSm_-50" value="" style="edgeStyle=orthogonalEdgeStyle;rounded=0;orthogonalLoop=1;jettySize=auto;html=1;" parent="1" source="gUQQYlxxlWg2NasRCSm_-45" target="gUQQYlxxlWg2NasRCSm_-46" edge="1">
          <mxGeometry relative="1" as="geometry" />
        </mxCell>
        <mxCell id="gUQQYlxxlWg2NasRCSm_-45" value="Mengirim feedback ke email tujuan" style="shape=process;whiteSpace=wrap;html=1;backgroundOutline=1;" parent="1" vertex="1">
          <mxGeometry x="-590" y="1316.5" width="130" height="100" as="geometry" />
        </mxCell>
        <mxCell id="5L33_iz6L0a8wc0iQSGg-10" style="edgeStyle=orthogonalEdgeStyle;rounded=0;orthogonalLoop=1;jettySize=auto;html=1;exitX=0;exitY=0.5;exitDx=0;exitDy=0;entryX=0.014;entryY=0.135;entryDx=0;entryDy=0;entryPerimeter=0;" edge="1" parent="1" source="gUQQYlxxlWg2NasRCSm_-46" target="WXKAW2A6yFPXHFqB-_A9-32">
          <mxGeometry relative="1" as="geometry">
            <mxPoint x="110.800048828125" y="50" as="targetPoint" />
            <Array as="points">
              <mxPoint x="-858" y="-81" />
            </Array>
          </mxGeometry>
        </mxCell>
        <mxCell id="gUQQYlxxlWg2NasRCSm_-46" value="&lt;div&gt;&lt;font size=&quot;3&quot;&gt;input&lt;/font&gt;&lt;/div&gt;&lt;div&gt;&lt;span style=&quot;font-size: medium; background-color: initial;&quot;&gt;Feedback berhasil terkirim&amp;nbsp;&lt;/span&gt;&lt;/div&gt;&lt;div&gt;&lt;br&gt;&lt;/div&gt;" style="shape=parallelogram;html=1;strokeWidth=2;perimeter=parallelogramPerimeter;whiteSpace=wrap;rounded=1;arcSize=12;size=0.23;align=center;" parent="1" vertex="1">
          <mxGeometry x="-890" y="1296.5" width="280" height="140" as="geometry" />
        </mxCell>
        <mxCell id="gUQQYlxxlWg2NasRCSm_-54" style="edgeStyle=orthogonalEdgeStyle;rounded=0;orthogonalLoop=1;jettySize=auto;html=1;exitX=0.5;exitY=1;exitDx=0;exitDy=0;exitPerimeter=0;" parent="1" source="gUQQYlxxlWg2NasRCSm_-52" edge="1">
          <mxGeometry relative="1" as="geometry">
            <mxPoint x="260" y="1593" as="targetPoint" />
          </mxGeometry>
        </mxCell>
        <mxCell id="-HIsrEYuNSBhbyxjXifA-6" value="" style="edgeStyle=orthogonalEdgeStyle;rounded=0;orthogonalLoop=1;jettySize=auto;html=1;" parent="1" source="gUQQYlxxlWg2NasRCSm_-52" target="-HIsrEYuNSBhbyxjXifA-5" edge="1">
          <mxGeometry relative="1" as="geometry" />
        </mxCell>
        <mxCell id="gUQQYlxxlWg2NasRCSm_-52" value="&lt;span style=&quot;font-size: 18px;&quot;&gt;IF&lt;/span&gt;&lt;div&gt;&lt;span style=&quot;font-size: 18px;&quot;&gt;pilih==6&lt;/span&gt;&lt;/div&gt;" style="strokeWidth=2;html=1;shape=mxgraph.flowchart.decision;whiteSpace=wrap;direction=south;" parent="1" vertex="1">
          <mxGeometry x="324.13" y="1516.5" width="151.74" height="153" as="geometry" />
        </mxCell>
        <mxCell id="gUQQYlxxlWg2NasRCSm_-58" value="" style="edgeStyle=orthogonalEdgeStyle;rounded=0;orthogonalLoop=1;jettySize=auto;html=1;" parent="1" source="gUQQYlxxlWg2NasRCSm_-55" target="gUQQYlxxlWg2NasRCSm_-56" edge="1">
          <mxGeometry relative="1" as="geometry" />
        </mxCell>
        <mxCell id="gUQQYlxxlWg2NasRCSm_-55" value="&lt;font style=&quot;font-size: 18px;&quot;&gt;YA&lt;/font&gt;" style="text;html=1;align=center;verticalAlign=middle;resizable=0;points=[];autosize=1;strokeColor=none;fillColor=none;" parent="1" vertex="1">
          <mxGeometry x="200" y="1570" width="50" height="40" as="geometry" />
        </mxCell>
        <mxCell id="5L33_iz6L0a8wc0iQSGg-11" style="edgeStyle=orthogonalEdgeStyle;rounded=0;orthogonalLoop=1;jettySize=auto;html=1;exitX=0;exitY=0.5;exitDx=0;exitDy=0;entryX=0;entryY=0.75;entryDx=0;entryDy=0;" edge="1" parent="1" source="gUQQYlxxlWg2NasRCSm_-56" target="rXHbmidsyB8I2zzbeeDN-8">
          <mxGeometry relative="1" as="geometry">
            <mxPoint x="-450" y="-1417.999979654948" as="targetPoint" />
            <Array as="points">
              <mxPoint x="-930" y="1590" />
              <mxPoint x="-930" y="-940" />
            </Array>
          </mxGeometry>
        </mxCell>
        <mxCell id="gUQQYlxxlWg2NasRCSm_-56" value="&lt;span style=&quot;font-size: 18px;&quot;&gt;Log Out&lt;/span&gt;" style="whiteSpace=wrap;html=1;" parent="1" vertex="1">
          <mxGeometry x="-55" y="1540" width="210" height="100" as="geometry" />
        </mxCell>
        <mxCell id="-HIsrEYuNSBhbyxjXifA-7" style="edgeStyle=orthogonalEdgeStyle;rounded=0;orthogonalLoop=1;jettySize=auto;html=1;exitX=1;exitY=0.5;exitDx=0;exitDy=0;entryX=1;entryY=0.5;entryDx=0;entryDy=0;" parent="1" source="-HIsrEYuNSBhbyxjXifA-5" target="WXKAW2A6yFPXHFqB-_A9-32" edge="1">
          <mxGeometry relative="1" as="geometry" />
        </mxCell>
        <mxCell id="-HIsrEYuNSBhbyxjXifA-5" value="&lt;span style=&quot;font-size: 24px;&quot;&gt;ERROR&lt;/span&gt;" style="whiteSpace=wrap;html=1;" parent="1" vertex="1">
          <mxGeometry x="294.25" y="1720" width="210" height="100" as="geometry" />
        </mxCell>
        <mxCell id="-HIsrEYuNSBhbyxjXifA-14" value="" style="edgeStyle=orthogonalEdgeStyle;rounded=0;orthogonalLoop=1;jettySize=auto;html=1;exitX=0.5;exitY=0;exitDx=0;exitDy=0;exitPerimeter=0;entryX=0;entryY=0.5;entryDx=0;entryDy=0;" parent="1" source="WXKAW2A6yFPXHFqB-_A9-68" target="-HIsrEYuNSBhbyxjXifA-12" edge="1">
          <mxGeometry relative="1" as="geometry">
            <mxPoint x="828" y="877" as="sourcePoint" />
            <mxPoint x="970" y="877" as="targetPoint" />
          </mxGeometry>
        </mxCell>
        <mxCell id="-HIsrEYuNSBhbyxjXifA-12" value="&lt;font style=&quot;font-size: 18px;&quot;&gt;YA&lt;/font&gt;" style="text;html=1;align=center;verticalAlign=middle;resizable=0;points=[];autosize=1;strokeColor=none;fillColor=none;" parent="1" vertex="1">
          <mxGeometry x="870" y="856.5" width="50" height="40" as="geometry" />
        </mxCell>
        <mxCell id="-HIsrEYuNSBhbyxjXifA-15" value="" style="edgeStyle=orthogonalEdgeStyle;rounded=0;orthogonalLoop=1;jettySize=auto;html=1;exitX=0.5;exitY=0;exitDx=0;exitDy=0;exitPerimeter=0;entryX=-0.005;entryY=0.489;entryDx=0;entryDy=0;entryPerimeter=0;" parent="1" source="WXKAW2A6yFPXHFqB-_A9-70" target="-HIsrEYuNSBhbyxjXifA-13" edge="1">
          <mxGeometry relative="1" as="geometry">
            <mxPoint x="828" y="641" as="sourcePoint" />
            <mxPoint x="968" y="641" as="targetPoint" />
          </mxGeometry>
        </mxCell>
        <mxCell id="-HIsrEYuNSBhbyxjXifA-13" value="&lt;font style=&quot;font-size: 18px;&quot;&gt;YA&lt;/font&gt;" style="text;html=1;align=center;verticalAlign=middle;resizable=0;points=[];autosize=1;strokeColor=none;fillColor=none;" parent="1" vertex="1">
          <mxGeometry x="870" y="621" width="50" height="40" as="geometry" />
        </mxCell>
        <mxCell id="-HIsrEYuNSBhbyxjXifA-17" value="" style="edgeStyle=orthogonalEdgeStyle;rounded=0;orthogonalLoop=1;jettySize=auto;html=1;" parent="1" source="-HIsrEYuNSBhbyxjXifA-10" target="WXKAW2A6yFPXHFqB-_A9-68" edge="1">
          <mxGeometry relative="1" as="geometry" />
        </mxCell>
        <mxCell id="-HIsrEYuNSBhbyxjXifA-10" value="&lt;font style=&quot;font-size: 18px;&quot;&gt;TIDAK&lt;/font&gt;" style="text;html=1;align=center;verticalAlign=middle;resizable=0;points=[];autosize=1;strokeColor=none;fillColor=none;" parent="1" vertex="1">
          <mxGeometry x="710" y="730" width="80" height="40" as="geometry" />
        </mxCell>
        <mxCell id="-HIsrEYuNSBhbyxjXifA-18" style="edgeStyle=orthogonalEdgeStyle;rounded=0;orthogonalLoop=1;jettySize=auto;html=1;exitX=1;exitY=0.5;exitDx=0;exitDy=0;exitPerimeter=0;entryX=0.507;entryY=0.011;entryDx=0;entryDy=0;entryPerimeter=0;" parent="1" source="WXKAW2A6yFPXHFqB-_A9-70" target="-HIsrEYuNSBhbyxjXifA-10" edge="1">
          <mxGeometry relative="1" as="geometry" />
        </mxCell>
        <mxCell id="-HIsrEYuNSBhbyxjXifA-19" value="" style="edgeStyle=orthogonalEdgeStyle;rounded=0;orthogonalLoop=1;jettySize=auto;html=1;exitX=1;exitY=0.5;exitDx=0;exitDy=0;exitPerimeter=0;" parent="1" source="WXKAW2A6yFPXHFqB-_A9-68" target="-HIsrEYuNSBhbyxjXifA-11" edge="1">
          <mxGeometry relative="1" as="geometry">
            <mxPoint x="752" y="953" as="sourcePoint" />
            <mxPoint x="750" y="1040" as="targetPoint" />
          </mxGeometry>
        </mxCell>
        <mxCell id="-HIsrEYuNSBhbyxjXifA-20" value="" style="edgeStyle=orthogonalEdgeStyle;rounded=0;orthogonalLoop=1;jettySize=auto;html=1;" parent="1" source="-HIsrEYuNSBhbyxjXifA-11" edge="1">
          <mxGeometry relative="1" as="geometry">
            <mxPoint x="751.7142857142862" y="1060" as="targetPoint" />
          </mxGeometry>
        </mxCell>
        <mxCell id="-HIsrEYuNSBhbyxjXifA-11" value="&lt;font style=&quot;font-size: 18px;&quot;&gt;TIDAK&lt;/font&gt;" style="text;html=1;align=center;verticalAlign=middle;resizable=0;points=[];autosize=1;strokeColor=none;fillColor=none;" parent="1" vertex="1">
          <mxGeometry x="711.74" y="985" width="80" height="40" as="geometry" />
        </mxCell>
        <mxCell id="-HIsrEYuNSBhbyxjXifA-27" value="" style="edgeStyle=orthogonalEdgeStyle;rounded=0;orthogonalLoop=1;jettySize=auto;html=1;" parent="1" source="-HIsrEYuNSBhbyxjXifA-21" target="gUQQYlxxlWg2NasRCSm_-52" edge="1">
          <mxGeometry relative="1" as="geometry" />
        </mxCell>
        <mxCell id="-HIsrEYuNSBhbyxjXifA-21" value="&lt;font style=&quot;font-size: 18px;&quot;&gt;TIDAK&lt;/font&gt;" style="text;html=1;align=center;verticalAlign=middle;resizable=0;points=[];autosize=1;strokeColor=none;fillColor=none;" parent="1" vertex="1">
          <mxGeometry x="360.5" y="1457" width="80" height="40" as="geometry" />
        </mxCell>
        <mxCell id="-HIsrEYuNSBhbyxjXifA-24" style="edgeStyle=orthogonalEdgeStyle;rounded=0;orthogonalLoop=1;jettySize=auto;html=1;exitX=1;exitY=0.5;exitDx=0;exitDy=0;exitPerimeter=0;entryX=0.51;entryY=0.01;entryDx=0;entryDy=0;entryPerimeter=0;" parent="1" source="WXKAW2A6yFPXHFqB-_A9-67" target="-HIsrEYuNSBhbyxjXifA-21" edge="1">
          <mxGeometry relative="1" as="geometry" />
        </mxCell>
        <mxCell id="5L33_iz6L0a8wc0iQSGg-27" value="" style="edgeStyle=orthogonalEdgeStyle;rounded=0;orthogonalLoop=1;jettySize=auto;html=1;" edge="1" parent="1" source="5L33_iz6L0a8wc0iQSGg-14" target="5L33_iz6L0a8wc0iQSGg-26">
          <mxGeometry relative="1" as="geometry" />
        </mxCell>
        <mxCell id="5L33_iz6L0a8wc0iQSGg-31" value="" style="edgeStyle=orthogonalEdgeStyle;rounded=0;orthogonalLoop=1;jettySize=auto;html=1;" edge="1" parent="1" source="5L33_iz6L0a8wc0iQSGg-14" target="5L33_iz6L0a8wc0iQSGg-30">
          <mxGeometry relative="1" as="geometry" />
        </mxCell>
        <mxCell id="5L33_iz6L0a8wc0iQSGg-14" value="&lt;span style=&quot;font-size: 18px;&quot;&gt;IF&lt;/span&gt;&lt;div&gt;&lt;span style=&quot;font-size: 18px;&quot;&gt;pilih==6&lt;/span&gt;&lt;/div&gt;" style="strokeWidth=2;html=1;shape=mxgraph.flowchart.decision;whiteSpace=wrap;direction=south;" vertex="1" parent="1">
          <mxGeometry x="675.87" y="1340" width="151.74" height="153" as="geometry" />
        </mxCell>
        <mxCell id="5L33_iz6L0a8wc0iQSGg-18" value="" style="edgeStyle=orthogonalEdgeStyle;rounded=0;orthogonalLoop=1;jettySize=auto;html=1;" edge="1" parent="1" source="5L33_iz6L0a8wc0iQSGg-15" target="5L33_iz6L0a8wc0iQSGg-17">
          <mxGeometry relative="1" as="geometry" />
        </mxCell>
        <mxCell id="5L33_iz6L0a8wc0iQSGg-23" value="" style="edgeStyle=orthogonalEdgeStyle;rounded=0;orthogonalLoop=1;jettySize=auto;html=1;" edge="1" parent="1" source="5L33_iz6L0a8wc0iQSGg-15" target="5L33_iz6L0a8wc0iQSGg-22">
          <mxGeometry relative="1" as="geometry" />
        </mxCell>
        <mxCell id="5L33_iz6L0a8wc0iQSGg-15" value="&lt;span style=&quot;font-size: 18px;&quot;&gt;IF&lt;/span&gt;&lt;div&gt;&lt;span style=&quot;font-size: 18px;&quot;&gt;pilih==5&lt;/span&gt;&lt;/div&gt;" style="strokeWidth=2;html=1;shape=mxgraph.flowchart.decision;whiteSpace=wrap;direction=south;" vertex="1" parent="1">
          <mxGeometry x="675.87" y="1072.5" width="151.74" height="153" as="geometry" />
        </mxCell>
        <mxCell id="5L33_iz6L0a8wc0iQSGg-20" style="edgeStyle=orthogonalEdgeStyle;rounded=0;orthogonalLoop=1;jettySize=auto;html=1;exitX=1;exitY=0.5;exitDx=0;exitDy=0;entryX=1.003;entryY=0.123;entryDx=0;entryDy=0;entryPerimeter=0;" edge="1" parent="1" source="5L33_iz6L0a8wc0iQSGg-16" target="WXKAW2A6yFPXHFqB-_A9-36">
          <mxGeometry relative="1" as="geometry">
            <mxPoint x="1110" y="-338" as="targetPoint" />
            <Array as="points">
              <mxPoint x="1990" y="1149" />
              <mxPoint x="1990" y="-300" />
            </Array>
          </mxGeometry>
        </mxCell>
        <mxCell id="5L33_iz6L0a8wc0iQSGg-16" value="&lt;span style=&quot;font-size: 18px;&quot;&gt;Melihat Daftar Feedback&lt;/span&gt;" style="whiteSpace=wrap;html=1;" vertex="1" parent="1">
          <mxGeometry x="970" y="1099" width="210" height="100" as="geometry" />
        </mxCell>
        <mxCell id="5L33_iz6L0a8wc0iQSGg-19" value="" style="edgeStyle=orthogonalEdgeStyle;rounded=0;orthogonalLoop=1;jettySize=auto;html=1;" edge="1" parent="1" source="5L33_iz6L0a8wc0iQSGg-17" target="5L33_iz6L0a8wc0iQSGg-16">
          <mxGeometry relative="1" as="geometry" />
        </mxCell>
        <mxCell id="5L33_iz6L0a8wc0iQSGg-17" value="&lt;font style=&quot;font-size: 18px;&quot;&gt;YA&lt;/font&gt;" style="text;html=1;align=center;verticalAlign=middle;resizable=0;points=[];autosize=1;strokeColor=none;fillColor=none;" vertex="1" parent="1">
          <mxGeometry x="880" y="1129" width="50" height="40" as="geometry" />
        </mxCell>
        <mxCell id="5L33_iz6L0a8wc0iQSGg-24" value="" style="edgeStyle=orthogonalEdgeStyle;rounded=0;orthogonalLoop=1;jettySize=auto;html=1;" edge="1" parent="1" source="5L33_iz6L0a8wc0iQSGg-22" target="5L33_iz6L0a8wc0iQSGg-14">
          <mxGeometry relative="1" as="geometry" />
        </mxCell>
        <mxCell id="5L33_iz6L0a8wc0iQSGg-22" value="&lt;font style=&quot;font-size: 18px;&quot;&gt;TIDAK&lt;/font&gt;" style="text;html=1;align=center;verticalAlign=middle;resizable=0;points=[];autosize=1;strokeColor=none;fillColor=none;" vertex="1" parent="1">
          <mxGeometry x="711.74" y="1276.5" width="80" height="40" as="geometry" />
        </mxCell>
        <mxCell id="5L33_iz6L0a8wc0iQSGg-29" style="edgeStyle=orthogonalEdgeStyle;rounded=0;orthogonalLoop=1;jettySize=auto;html=1;exitX=1;exitY=0.25;exitDx=0;exitDy=0;entryX=0;entryY=0.5;entryDx=0;entryDy=0;" edge="1" parent="1" source="5L33_iz6L0a8wc0iQSGg-25" target="rXHbmidsyB8I2zzbeeDN-8">
          <mxGeometry relative="1" as="geometry">
            <mxPoint x="-990" y="-1762.0000457763672" as="targetPoint" />
            <Array as="points">
              <mxPoint x="1200" y="1391" />
              <mxPoint x="1200" y="1870" />
              <mxPoint x="-1040" y="1870" />
              <mxPoint x="-1040" y="-970" />
            </Array>
          </mxGeometry>
        </mxCell>
        <mxCell id="5L33_iz6L0a8wc0iQSGg-25" value="&lt;span style=&quot;font-size: 18px;&quot;&gt;Log Out&lt;/span&gt;" style="whiteSpace=wrap;html=1;" vertex="1" parent="1">
          <mxGeometry x="970" y="1366.5" width="210" height="100" as="geometry" />
        </mxCell>
        <mxCell id="5L33_iz6L0a8wc0iQSGg-28" value="" style="edgeStyle=orthogonalEdgeStyle;rounded=0;orthogonalLoop=1;jettySize=auto;html=1;" edge="1" parent="1" source="5L33_iz6L0a8wc0iQSGg-26" target="5L33_iz6L0a8wc0iQSGg-25">
          <mxGeometry relative="1" as="geometry" />
        </mxCell>
        <mxCell id="5L33_iz6L0a8wc0iQSGg-26" value="&lt;font style=&quot;font-size: 18px;&quot;&gt;YA&lt;/font&gt;" style="text;html=1;align=center;verticalAlign=middle;resizable=0;points=[];autosize=1;strokeColor=none;fillColor=none;" vertex="1" parent="1">
          <mxGeometry x="880" y="1396.5" width="50" height="40" as="geometry" />
        </mxCell>
        <mxCell id="5L33_iz6L0a8wc0iQSGg-32" style="edgeStyle=orthogonalEdgeStyle;rounded=0;orthogonalLoop=1;jettySize=auto;html=1;exitX=0;exitY=0.5;exitDx=0;exitDy=0;entryX=0;entryY=0.75;entryDx=0;entryDy=0;" edge="1" parent="1" source="5L33_iz6L0a8wc0iQSGg-30" target="WXKAW2A6yFPXHFqB-_A9-36">
          <mxGeometry relative="1" as="geometry" />
        </mxCell>
        <mxCell id="5L33_iz6L0a8wc0iQSGg-30" value="&lt;span style=&quot;font-size: 24px;&quot;&gt;ERROR&lt;/span&gt;" style="whiteSpace=wrap;html=1;" vertex="1" parent="1">
          <mxGeometry x="646.74" y="1590" width="210" height="100" as="geometry" />
        </mxCell>
      </root>
    </mxGraphModel>
  </diagram>
  <diagram id="1zbEmQT1zkaDp6UUC_xe" name="Halaman-2">
    <mxGraphModel dx="1290" dy="603" grid="1" gridSize="10" guides="1" tooltips="1" connect="1" arrows="1" fold="1" page="1" pageScale="1" pageWidth="850" pageHeight="1100" math="0" shadow="0">
      <root>
        <mxCell id="0" />
        <mxCell id="1" parent="0" />
      </root>
    </mxGraphModel>
  </diagram>
</mxfile>
